<?xml version="1.0" encoding="UTF-8"?>
<svg width="23px" height="10px" viewBox="512 1138 23 10" xmlns="http://www.w3.org/2000/svg" xmlns:xlink="http://www.w3.org/1999/xlink" version="1.1">
 <!-- Generated by Pixelmator Pro 2.2 -->
 <path id="Shape-1" d="M513.296 1144.473 L513.288 1144.471 530.244 1144.471 C530.244 1144.471 530.144 1147.329 530.144 1147.329 530.089 1147.384 530.06 1147.458 530.06 1147.534 530.06 1147.612 530.089 1147.684 530.144 1147.739 530.144 1147.739 530.316 1147.912 530.316 1147.912 530.37 1147.967 530.443 1147.996 530.52 1147.996 530.597 1147.996 530.669 1147.967 530.724 1147.913 530.724 1147.913 534.916 1143.701 534.916 1143.701 534.97 1143.647 535 1143.574 535 1143.497 535 1143.419 534.97 1143.346 534.916 1143.293 534.916 1143.293 530.724 1139.08 530.724 1139.08 530.669 1139.026 530.597 1138.997 530.52 1138.997 530.443 1138.997 530.37 1139.026 530.316 1139.08 530.316 1139.08 530.144 1139.254 530.144 1139.254 530.089 1139.307 530.06 1139.38 530.06 1139.458 530.06 1139.535 530.089 1139.604 530.144 1139.657 530.144 1139.657 530.257 1142.522 530.257 1142.522 530.257 1142.522 513.292 1142.522 513.292 1142.522 513.133 1142.522 513 1142.659 513 1142.818 513 1142.818 513 1144.188 513 1144.188 513 1144.347 513.137 1144.473 513.296 1144.473 Z" fill="#a3bbc8" fill-opacity="1" stroke="none"/>
</svg>
