<?xml version="1.0" encoding="UTF-8"?>
<svg width="23px" height="10px" viewBox="534 648 23 10" xmlns="http://www.w3.org/2000/svg" xmlns:xlink="http://www.w3.org/1999/xlink" version="1.1">
 <!-- Generated by Pixelmator Pro 2.2 -->
 <path id="Shape-1" d="M535.296 654.472 L535.288 654.472 552.244 654.472 C552.244 654.472 552.144 657.329 552.144 657.329 552.089 657.383 552.06 657.457 552.06 657.534 552.06 657.611 552.089 657.685 552.144 657.739 552.144 657.739 552.316 657.911 552.316 657.911 552.37 657.967 552.443 657.997 552.52 657.997 552.597 657.997 552.669 657.967 552.723 657.913 552.723 657.913 556.916 653.702 556.916 653.702 556.97 653.647 557 653.574 557 653.496 557 653.419 556.97 653.346 556.916 653.293 556.916 653.293 552.723 649.08 552.723 649.08 552.669 649.026 552.597 648.996 552.52 648.996 552.443 648.996 552.37 649.026 552.316 649.08 552.316 649.08 552.144 649.253 552.144 649.253 552.089 649.309 552.06 649.38 552.06 649.457 552.06 649.535 552.089 649.603 552.144 649.658 552.144 649.658 552.257 652.522 552.257 652.522 552.257 652.522 535.292 652.522 535.292 652.522 535.133 652.522 535 652.658 535 652.817 535 652.817 535 654.188 535 654.188 535 654.347 535.137 654.472 535.296 654.472 Z" fill="#ffffff" fill-opacity="1" stroke="none"/>
</svg>
