<?xml version="1.0" encoding="UTF-8"?>
<svg width="23px" height="10px" viewBox="602 2610 23 10" xmlns="http://www.w3.org/2000/svg">
 <path id="Shape-1" d="M603.296 2616.472 L603.288 2616.47 620.244 2616.47 C620.244 2616.47 620.144 2619.329 620.144 2619.329 620.089 2619.383 620.06 2619.458 620.06 2619.534 620.06 2619.611 620.089 2619.684 620.144 2619.738 620.144 2619.738 620.316 2619.912 620.316 2619.912 620.37 2619.966 620.443 2619.996 620.52 2619.996 620.597 2619.996 620.669 2619.966 620.724 2619.912 620.724 2619.912 624.916 2615.7 624.916 2615.7 624.97 2615.646 625 2615.573 625 2615.496 625 2615.419 624.97 2615.345 624.916 2615.292 624.916 2615.292 620.724 2611.079 620.724 2611.079 620.669 2611.026 620.597 2610.996 620.52 2610.996 620.443 2610.996 620.37 2611.026 620.316 2611.079 620.316 2611.079 620.144 2611.253 620.144 2611.253 620.089 2611.307 620.06 2611.379 620.06 2611.457 620.06 2611.534 620.089 2611.603 620.144 2611.656 620.144 2611.656 620.257 2614.521 620.257 2614.521 620.257 2614.521 603.292 2614.521 603.292 2614.521 603.133 2614.521 603 2614.658 603 2614.817 603 2614.817 603 2616.187 603 2616.187 603 2616.346 603.137 2616.472 603.296 2616.472 Z"/>
</svg>
