<?xml version="1.0" encoding="UTF-8"?>
<svg width="64px" height="40px" viewBox="770 1281 64 40" xmlns="http://www.w3.org/2000/svg" xmlns:xlink="http://www.w3.org/1999/xlink" version="1.1">
 <!-- Generated by Pixelmator Pro 2.2 -->
 <path id="Shape-1" d="M788.103 1321 C784.604 1321 781.758 1318.188 781.758 1314.73 781.758 1314.708 781.759 1314.686 781.76 1314.664 781.76 1314.664 776.346 1314.664 776.346 1314.664 775.204 1314.664 774.275 1313.745 774.275 1312.617 774.275 1312.617 774.275 1310.439 774.275 1310.439 774.275 1310.439 771.002 1310.439 771.002 1310.439 770.448 1310.439 770 1309.995 770 1309.449 770 1308.902 770.448 1308.458 771.002 1308.458 771.002 1308.458 780.623 1308.458 780.623 1308.458 781.176 1308.458 781.625 1308.902 781.625 1309.449 781.625 1309.995 781.176 1310.439 780.623 1310.439 780.623 1310.439 776.279 1310.439 776.279 1310.439 776.279 1310.439 776.279 1312.617 776.279 1312.617 776.279 1312.653 776.309 1312.683 776.346 1312.683 776.346 1312.683 782.107 1312.683 782.107 1312.683 782.968 1310.227 785.329 1308.458 788.103 1308.458 790.878 1308.458 793.241 1310.227 794.102 1312.683 794.102 1312.683 814.893 1312.683 814.893 1312.683 814.893 1312.683 814.893 1305.224 814.893 1305.224 814.893 1304.677 815.341 1304.234 815.894 1304.234 816.448 1304.234 816.896 1304.677 816.896 1305.224 816.896 1305.224 816.896 1312.683 816.896 1312.683 816.896 1312.683 817.379 1312.683 817.379 1312.683 818.239 1310.228 820.602 1308.458 823.377 1308.458 826.151 1308.458 828.514 1310.228 829.375 1312.683 829.375 1312.683 831.996 1312.683 831.996 1312.683 L831.996 1308.328 C831.996 1308.328 830.859 1308.328 830.859 1308.328 829.128 1308.328 827.721 1306.935 827.721 1305.224 827.721 1305.224 827.721 1303.113 827.721 1303.113 827.721 1302.566 828.169 1302.123 828.723 1302.123 828.723 1302.123 831.838 1302.123 831.838 1302.123 831.414 1300.822 830.179 1299.88 828.725 1299.878 828.724 1299.878 828.722 1299.878 828.721 1299.878 828.721 1299.878 828.719 1299.878 828.719 1299.878 828.719 1299.878 816.898 1299.878 816.898 1299.878 816.898 1299.878 816.898 1301 816.898 1301 816.898 1301.546 816.448 1301.99 815.894 1301.99 815.341 1301.99 814.893 1301.546 814.893 1301 814.893 1301 814.893 1283.046 814.893 1283.046 814.893 1283.01 814.863 1282.98 814.826 1282.98 814.826 1282.98 776.346 1282.98 776.346 1282.98 776.309 1282.98 776.279 1283.01 776.279 1283.046 776.279 1283.046 776.279 1301 776.279 1301 776.279 1301.546 775.831 1301.99 775.277 1301.99 774.724 1301.99 774.275 1301.546 774.275 1301 774.275 1301 774.275 1283.046 774.275 1283.046 774.275 1281.918 775.204 1281 776.346 1281 776.346 1281 814.826 1281 814.826 1281 815.968 1281 816.898 1281.918 816.898 1283.046 816.898 1283.046 816.898 1285.224 816.898 1285.224 816.898 1285.224 824.447 1285.224 824.447 1285.224 826.768 1285.224 828.656 1287.089 828.656 1289.382 828.656 1289.382 828.656 1290.439 828.656 1290.439 828.656 1290.915 828.316 1291.313 827.863 1291.408 827.863 1291.408 829.519 1297.957 829.519 1297.957 832.052 1298.337 834 1300.505 834 1303.113 834 1303.113 834 1313.673 834 1313.673 834 1314.22 833.551 1314.664 832.998 1314.664 832.998 1314.664 829.723 1314.664 829.723 1314.664 829.723 1314.686 829.725 1314.708 829.725 1314.73 829.725 1318.188 826.876 1321 823.377 1321 819.878 1321 817.031 1318.188 817.031 1314.73 817.031 1314.708 817.033 1314.686 817.033 1314.664 817.033 1314.664 794.449 1314.664 794.449 1314.664 794.449 1314.686 794.451 1314.708 794.451 1314.73 794.451 1318.188 791.603 1321 788.103 1321 Z M788.103 1319.019 C790.498 1319.019 792.447 1317.096 792.447 1314.73 792.447 1312.364 790.498 1310.439 788.103 1310.439 785.709 1310.439 783.762 1312.364 783.762 1314.73 783.762 1317.096 785.709 1319.019 788.103 1319.019 Z M823.377 1319.019 C825.771 1319.019 827.721 1317.096 827.721 1314.73 827.721 1312.364 825.771 1310.439 823.377 1310.439 820.983 1310.439 819.035 1312.364 819.035 1314.73 819.035 1317.096 820.983 1319.019 823.377 1319.019 Z M788.103 1316.775 C786.961 1316.775 786.033 1315.858 786.033 1314.73 786.033 1313.602 786.961 1312.683 788.103 1312.683 789.245 1312.683 790.176 1313.602 790.176 1314.73 790.176 1315.858 789.245 1316.775 788.103 1316.775 Z M823.377 1316.775 C822.235 1316.775 821.307 1315.858 821.307 1314.73 821.307 1313.602 822.235 1312.683 823.377 1312.683 824.519 1312.683 825.449 1313.602 825.449 1314.73 825.449 1315.858 824.519 1316.775 823.377 1316.775 Z M796.656 1310.439 C796.103 1310.439 795.654 1309.995 795.654 1309.449 795.654 1308.902 796.103 1308.458 796.656 1308.458 796.656 1308.458 811.619 1308.458 811.619 1308.458 812.173 1308.458 812.623 1308.902 812.623 1309.449 812.623 1309.995 812.172 1310.439 811.619 1310.439 811.619 1310.439 796.656 1310.439 796.656 1310.439 Z M830.859 1306.347 C830.859 1306.347 831.996 1306.347 831.996 1306.347 L831.996 1304.101 829.725 1304.101 C829.725 1304.101 829.725 1305.224 829.725 1305.224 829.725 1305.843 830.233 1306.347 830.859 1306.347 Z M773.141 1306.214 C772.587 1306.214 772.139 1305.771 772.139 1305.224 772.139 1304.677 772.587 1304.234 773.141 1304.234 773.141 1304.234 785.967 1304.234 785.967 1304.234 786.52 1304.234 786.969 1304.677 786.969 1305.224 786.969 1305.771 786.52 1306.214 785.967 1306.214 785.967 1306.214 773.141 1306.214 773.141 1306.214 Z M794.518 1301.99 C794.261 1301.99 794.004 1301.894 793.809 1301.701 793.809 1301.701 788.465 1296.419 788.465 1296.419 788.073 1296.032 788.073 1295.406 788.465 1295.019 788.856 1294.633 789.491 1294.633 789.883 1295.019 789.883 1295.019 794.518 1299.599 794.518 1299.599 794.518 1299.599 803.43 1290.794 803.43 1290.794 803.821 1290.408 804.454 1290.408 804.846 1290.794 805.237 1291.181 805.237 1291.808 804.846 1292.195 804.846 1292.195 795.227 1301.701 795.227 1301.701 795.031 1301.894 794.774 1301.99 794.518 1301.99 Z M816.898 1297.898 L827.439 1297.898 825.803 1291.429 816.898 1291.429 816.898 1297.898 Z M816.898 1289.449 L826.65 1289.449 C826.65 1289.449 826.65 1289.382 826.65 1289.382 826.65 1288.181 825.663 1287.205 824.447 1287.205 824.447 1287.205 816.898 1287.205 816.898 1287.205 L816.898 1289.449 Z" fill="#243f4d" fill-opacity="1" stroke="none"/>
</svg>
