<?xml version="1.0" encoding="UTF-8"?>
<svg width="20px" height="18px" viewBox="1715 68 20 18" xmlns="http://www.w3.org/2000/svg" xmlns:xlink="http://www.w3.org/1999/xlink" version="1.1">
 <!-- Generated by Pixelmator Pro 2.2 -->
 <path id="Shape-16" d="M1721.527 85.978 C1720.99 85.978 1720.462 85.769 1720.064 85.372 1719.468 84.778 1719.292 83.89 1719.613 83.11 1719.935 82.333 1720.686 81.831 1721.527 81.831 1721.529 81.831 1721.531 81.831 1721.533 81.831 1722.084 81.831 1722.603 82.045 1722.994 82.435 1723.386 82.828 1723.601 83.346 1723.601 83.899 1723.603 84.74 1723.104 85.494 1722.326 85.817 1722.067 85.926 1721.796 85.978 1721.527 85.978 Z M1729.918 85.978 C1729.381 85.978 1728.854 85.769 1728.457 85.372 1727.86 84.777 1727.684 83.89 1728.006 83.11 1728.327 82.333 1729.076 81.831 1729.918 81.831 1730.464 81.791 1730.999 82.049 1731.387 82.435 1731.779 82.827 1731.994 83.346 1731.994 83.899 1731.997 84.739 1731.496 85.494 1730.719 85.817 1730.459 85.926 1730.187 85.977 1729.918 85.978 Z M1721.484 84.792 C1721.613 84.798 1721.744 84.775 1721.869 84.724 1722.203 84.584 1722.419 84.26 1722.418 83.899 1722.418 83.663 1722.324 83.441 1722.156 83.272 1721.99 83.108 1721.769 83.015 1721.533 83.015 1721.531 83.015 1721.53 83.015 1721.529 83.015 1721.168 83.015 1720.845 83.23 1720.707 83.563 1720.57 83.897 1720.645 84.278 1720.9 84.532 1721.06 84.691 1721.269 84.781 1721.484 84.792 Z M1729.877 84.792 C1730.006 84.798 1730.139 84.775 1730.264 84.724 1730.596 84.584 1730.81 84.262 1730.808 83.901 1730.808 83.664 1730.716 83.441 1730.549 83.272 1730.384 83.109 1730.156 83.015 1729.924 83.015 1729.924 83.015 1729.922 83.015 1729.922 83.015 1729.591 83.047 1729.237 83.23 1729.099 83.563 1728.961 83.897 1729.037 84.278 1729.293 84.532 1729.453 84.692 1729.661 84.781 1729.877 84.792 Z M1718.644 83.179 C1718.56 83.179 1718.475 83.16 1718.394 83.122 1718.098 82.983 1717.97 82.631 1718.109 82.335 1718.688 81.096 1719.736 80.361 1721.162 80.185 1721.162 80.185 1720.107 74.794 1720.107 74.794 1720.045 74.473 1720.255 74.162 1720.576 74.099 1720.897 74.033 1721.208 74.246 1721.271 74.565 1721.271 74.565 1722.361 80.144 1722.361 80.144 L1731.785 80.144 1733.592 73.372 C1733.592 73.372 1720.314 73.372 1720.314 73.372 1720.306 73.372 1720.297 73.372 1720.289 73.372 1718.161 73.372 1716.321 71.79 1716.006 69.681 1715.957 69.356 1716.182 69.055 1716.506 69.007 1716.821 68.952 1717.129 69.181 1717.178 69.505 1717.407 71.037 1718.744 72.187 1720.293 72.187 1720.299 72.187 1720.305 72.187 1720.31 72.187 1720.31 72.187 1734.363 72.187 1734.363 72.187 1734.547 72.187 1734.72 72.273 1734.832 72.419 1734.945 72.565 1734.983 72.756 1734.935 72.933 1734.935 72.933 1732.812 80.888 1732.812 80.888 1732.743 81.146 1732.508 81.327 1732.24 81.327 1732.24 81.327 1721.885 81.327 1721.885 81.327 1721.876 81.325 1721.869 81.325 1721.863 81.327 1720.534 81.328 1719.656 81.821 1719.182 82.837 1719.081 83.051 1718.868 83.179 1718.644 83.179 Z" fill="#243f4d" fill-opacity="1" stroke="none"/>
</svg>
