<?xml version="1.0" encoding="UTF-8"?>
<svg width="18px" height="15px" viewBox="1166 2955 18 15" xmlns="http://www.w3.org/2000/svg" xmlns:xlink="http://www.w3.org/1999/xlink" version="1.1">
 <!-- Generated by Pixelmator Pro 2.2 -->
 <path id="Shape-3" d="M1169 2970 C1168.945 2970 1168.889 2969.99 1168.836 2969.969 1168.676 2969.905 1168.57 2969.756 1168.57 2969.59 1168.57 2969.59 1168.57 2967.518 1168.57 2967.518 1168.57 2967.518 1167.285 2967.518 1167.285 2967.518 1166.576 2967.518 1166 2966.965 1166 2966.285 1166 2966.285 1166 2956.424 1166 2956.424 1166 2955.744 1166.576 2955.191 1167.285 2955.191 1167.285 2955.191 1182.715 2955.191 1182.715 2955.191 1183.424 2955.191 1184 2955.744 1184 2956.424 1184 2956.424 1184 2966.285 1184 2966.285 1184 2966.965 1183.424 2967.518 1182.715 2967.518 1182.715 2967.518 1171.766 2967.518 1171.766 2967.518 1171.766 2967.518 1169.303 2969.879 1169.303 2969.879 1169.221 2969.958 1169.112 2970 1169 2970 Z M1169.428 2968.598 C1169.428 2968.598 1171.285 2966.816 1171.285 2966.816 1171.366 2966.739 1171.474 2966.695 1171.588 2966.695 1171.588 2966.695 1182.715 2966.695 1182.715 2966.695 1182.951 2966.695 1183.143 2966.512 1183.143 2966.285 1183.143 2966.285 1183.143 2956.424 1183.143 2956.424 1183.143 2956.197 1182.951 2956.014 1182.715 2956.014 L1167.285 2956.014 C1167.049 2956.014 1166.857 2956.197 1166.857 2956.424 1166.857 2956.424 1166.857 2966.285 1166.857 2966.285 1166.857 2966.512 1167.049 2966.695 1167.285 2966.695 1167.285 2966.695 1169 2966.695 1169 2966.695 1169.237 2966.695 1169.428 2966.881 1169.428 2967.107 1169.428 2967.107 1169.428 2968.598 1169.428 2968.598 Z M1171.414 2961.971 C1171.059 2961.971 1170.771 2961.696 1170.771 2961.355 1170.771 2961.015 1171.059 2960.738 1171.414 2960.738 1171.769 2960.738 1172.057 2961.015 1172.057 2961.355 1172.057 2961.696 1171.769 2961.971 1171.414 2961.971 Z M1175 2961.971 C1174.645 2961.971 1174.357 2961.696 1174.357 2961.355 1174.357 2961.015 1174.645 2960.738 1175 2960.738 1175.355 2960.738 1175.643 2961.015 1175.643 2961.355 1175.643 2961.696 1175.355 2961.971 1175 2961.971 Z M1178.344 2961.971 C1177.989 2961.971 1177.699 2961.696 1177.699 2961.355 1177.699 2961.015 1177.989 2960.738 1178.344 2960.738 1178.699 2960.738 1178.986 2961.015 1178.986 2961.355 1178.986 2961.696 1178.699 2961.971 1178.344 2961.971 Z" fill="#436372" fill-opacity="1" stroke="none"/>
</svg>
