<?xml version="1.0" encoding="UTF-8"?>
<svg width="22px" height="21px" viewBox="1810 63 22 21" xmlns="http://www.w3.org/2000/svg" xmlns:xlink="http://www.w3.org/1999/xlink" version="1.1">
 <!-- Generated by Pixelmator Pro 2.2 -->
 <path id="Ellipse-32" d="M1813.146 83.618 C1811.96 83.618 1811 82.66 1811 81.473 1811 80.286 1811.96 79.327 1813.146 79.327 1814.333 79.327 1815.291 80.286 1815.291 81.473 1815.291 82.66 1814.333 83.618 1813.146 83.618 Z M1821.014 83.618 C1819.827 83.618 1818.869 82.66 1818.869 81.473 1818.869 80.286 1819.827 79.327 1821.014 79.327 1822.2 79.327 1823.16 80.286 1823.16 81.473 1823.16 82.66 1822.2 83.618 1821.014 83.618 Z M1828.883 83.618 C1827.696 83.618 1826.736 82.66 1826.736 81.473 1826.736 80.286 1827.696 79.327 1828.883 79.327 1830.069 79.327 1831.029 80.286 1831.029 81.473 1831.029 82.66 1830.069 83.618 1828.883 83.618 Z M1813.146 75.75 C1811.96 75.75 1811 74.789 1811 73.602 1811 72.416 1811.96 71.458 1813.146 71.458 1814.333 71.458 1815.291 72.416 1815.291 73.602 1815.291 74.789 1814.333 75.75 1813.146 75.75 Z M1821.014 75.75 C1819.827 75.75 1818.869 74.789 1818.869 73.602 1818.869 72.416 1819.827 71.458 1821.014 71.458 1822.2 71.458 1823.16 72.416 1823.16 73.602 1823.16 74.789 1822.2 75.75 1821.014 75.75 Z M1828.883 75.75 C1827.696 75.75 1826.736 74.789 1826.736 73.602 1826.736 72.416 1827.696 71.458 1828.883 71.458 1830.069 71.458 1831.029 72.416 1831.029 73.602 1831.029 74.789 1830.069 75.75 1828.883 75.75 Z M1813.146 67.879 C1811.96 67.879 1811 66.921 1811 65.735 1811 64.548 1811.96 63.59 1813.146 63.59 1814.333 63.59 1815.291 64.548 1815.291 65.735 1815.291 66.921 1814.333 67.879 1813.146 67.879 Z M1821.014 67.879 C1819.827 67.879 1818.869 66.921 1818.869 65.735 1818.869 64.548 1819.827 63.59 1821.014 63.59 1822.2 63.59 1823.16 64.548 1823.16 65.735 1823.16 66.921 1822.2 67.879 1821.014 67.879 Z M1828.883 67.879 C1827.696 67.879 1826.736 66.921 1826.736 65.735 1826.736 64.548 1827.696 63.59 1828.883 63.59 1830.069 63.59 1831.029 64.548 1831.029 65.735 1831.029 66.921 1830.069 67.879 1828.883 67.879 Z" fill="#ffffff" fill-opacity="1" stroke="none"/>
</svg>
