<?xml version="1.0" encoding="UTF-8"?>
<svg width="53px" height="55px" viewBox="222 1010 53 55" xmlns="http://www.w3.org/2000/svg" xmlns:xlink="http://www.w3.org/1999/xlink" version="1.1">
 <!-- Generated by Pixelmator Pro 2.2 -->
 <g id="New-Group">
  <path id="Ellipse-1" d="M263.984 1044.594 C269.395 1044.594 273.781 1048.987 273.781 1054.406 273.781 1059.825 269.395 1064.219 263.984 1064.219 258.574 1064.219 254.187 1059.825 254.187 1054.406 254.187 1048.987 258.574 1044.594 263.984 1044.594 Z" fill="#a3bbc8" fill-opacity="1" stroke="none"/>
  <path id="Shape-1" d="M247.464 1060.206 C242.103 1060.206 237.01 1058.509 232.735 1055.3 232.321 1054.99 232.237 1054.401 232.548 1053.987 232.859 1053.573 233.446 1053.489 233.86 1053.8 237.808 1056.763 242.513 1058.331 247.464 1058.331 259.97 1058.331 270.143 1048.156 270.143 1035.649 270.143 1031.396 268.959 1027.25 266.72 1023.661 266.446 1023.222 266.581 1022.645 267.02 1022.37 267.46 1022.096 268.037 1022.229 268.311 1022.669 270.737 1026.557 272.018 1031.045 272.018 1035.649 272.018 1049.189 261.004 1060.206 247.464 1060.206 Z M230.925 1053.448 C230.688 1053.448 230.451 1053.36 230.268 1053.181 225.521 1048.524 222.907 1042.298 222.907 1035.649 222.907 1022.109 233.923 1011.095 247.464 1011.095 250.948 1011.095 254.317 1011.809 257.474 1013.22 259.804 1014.261 261.928 1015.64 263.817 1017.331 263.817 1017.331 263.776 1015.583 263.776 1015.583 263.764 1015.065 264.173 1014.637 264.69 1014.624 265.207 1014.613 265.639 1015.021 265.651 1015.538 L265.747 1019.599 C265.759 1020.116 265.35 1020.545 264.833 1020.558 264.833 1020.558 260.772 1020.655 260.772 1020.655 260.765 1020.655 260.756 1020.655 260.749 1020.655 260.241 1020.655 259.824 1020.25 259.811 1019.739 259.799 1019.221 260.21 1018.792 260.727 1018.78 260.727 1018.78 262.569 1018.737 262.569 1018.737 258.434 1015.051 253.041 1012.97 247.464 1012.97 234.958 1012.97 224.782 1023.145 224.782 1035.651 224.782 1041.791 227.196 1047.541 231.581 1051.843 231.951 1052.206 231.957 1052.798 231.595 1053.167 231.411 1053.355 231.168 1053.448 230.925 1053.448 Z M235.468 1046.483 C235.089 1046.483 234.748 1046.255 234.602 1045.905 234.457 1045.555 234.537 1045.15 234.806 1044.882 234.806 1044.882 241.149 1038.54 241.149 1038.54 243.21 1036.479 244.345 1033.741 244.345 1030.827 244.345 1028.638 242.562 1026.856 240.374 1026.856 238.185 1026.856 236.405 1028.638 236.405 1030.827 236.405 1031.345 235.986 1031.765 235.468 1031.765 234.95 1031.765 234.53 1031.345 234.53 1030.827 234.53 1027.604 237.152 1024.981 240.374 1024.981 243.596 1024.981 246.22 1027.604 246.22 1030.827 246.22 1034.242 244.89 1037.452 242.475 1039.866 242.475 1039.866 237.731 1044.608 237.731 1044.608 237.731 1044.608 245.282 1044.608 245.282 1044.608 245.8 1044.608 246.22 1045.028 246.22 1045.546 246.22 1046.063 245.8 1046.483 245.282 1046.483 245.282 1046.483 235.468 1046.483 235.468 1046.483 Z M256.782 1046.483 C256.264 1046.483 255.845 1046.063 255.845 1045.546 255.845 1045.546 255.845 1040.046 255.845 1040.046 255.845 1040.046 248.907 1040.046 248.907 1040.046 248.57 1040.046 248.257 1039.863 248.091 1039.569 247.924 1039.276 247.929 1038.917 248.102 1038.628 248.102 1038.628 255.977 1025.438 255.977 1025.438 256.243 1024.995 256.818 1024.849 257.263 1025.114 257.553 1025.288 257.716 1025.596 257.72 1025.911 257.72 1025.915 257.72 1025.916 257.72 1025.919 257.72 1025.919 257.72 1033.528 257.72 1033.528 257.72 1034.046 257.3 1034.466 256.782 1034.466 256.264 1034.466 255.845 1034.046 255.845 1033.528 255.845 1033.528 255.845 1029.319 255.845 1029.319 L250.559 1038.171 255.845 1038.171 C255.845 1038.171 255.845 1036.653 255.845 1036.653 255.845 1036.136 256.264 1035.716 256.782 1035.716 257.3 1035.716 257.72 1036.136 257.72 1036.653 257.72 1036.653 257.72 1038.171 257.72 1038.171 257.72 1038.171 260.321 1038.171 260.321 1038.171 260.839 1038.171 261.259 1038.59 261.259 1039.108 261.259 1039.626 260.839 1040.046 260.321 1040.046 260.321 1040.046 257.72 1040.046 257.72 1040.046 257.72 1040.046 257.72 1045.546 257.72 1045.546 257.72 1046.063 257.3 1046.483 256.782 1046.483 Z" fill="#a3bbc8" fill-opacity="1" stroke="none"/>
 </g>
</svg>
