<?xml version="1.0" encoding="UTF-8"?>
<svg width="55px" height="53px" viewBox="1398 1011 55 53" xmlns="http://www.w3.org/2000/svg" xmlns:xlink="http://www.w3.org/1999/xlink" version="1.1">
 <!-- Generated by Pixelmator Pro 2.2 -->
 <g id="New-Group">
  <path id="credit-card" d="M1402.092 1055.254 C1399.978 1055.254 1398.258 1053.532 1398.258 1051.417 1398.258 1051.417 1398.258 1027.797 1398.258 1027.797 1398.258 1025.681 1399.978 1023.958 1402.092 1023.958 1402.092 1023.958 1427.221 1023.958 1427.221 1023.958 1427.683 1023.958 1428.057 1024.332 1428.057 1024.793 1428.057 1025.255 1427.683 1025.631 1427.221 1025.631 1427.221 1025.631 1402.092 1025.631 1402.092 1025.631 1400.9 1025.631 1399.93 1026.604 1399.93 1027.797 1399.93 1027.797 1399.93 1030.68 1399.93 1030.68 1399.93 1030.68 1409.797 1030.68 1409.797 1030.68 1410.259 1030.68 1410.633 1031.057 1410.633 1031.518 1410.633 1031.98 1410.259 1032.354 1409.797 1032.354 1409.797 1032.354 1399.93 1032.354 1399.93 1032.354 L1399.93 1037.825 C1399.93 1037.825 1427.221 1037.825 1427.221 1037.825 1427.683 1037.825 1428.057 1038.199 1428.057 1038.661 1428.057 1039.124 1427.683 1039.497 1427.221 1039.497 1427.221 1039.497 1399.93 1039.497 1399.93 1039.497 1399.93 1039.497 1399.93 1051.417 1399.93 1051.417 1399.93 1052.61 1400.9 1053.583 1402.092 1053.583 1402.092 1053.583 1441.426 1053.583 1441.426 1053.583 1442.619 1053.583 1443.59 1052.61 1443.59 1051.417 1443.59 1051.417 1443.59 1043.151 1443.59 1043.151 1443.59 1042.689 1443.963 1042.315 1444.424 1042.315 1444.886 1042.315 1445.262 1042.689 1445.262 1043.151 1445.262 1043.151 1445.262 1051.417 1445.262 1051.417 1445.262 1053.533 1443.54 1055.254 1441.426 1055.254 1441.426 1055.254 1402.092 1055.254 1402.092 1055.254 Z M1403.711 1047.901 C1403.25 1047.901 1402.875 1047.528 1402.875 1047.065 1402.875 1046.603 1403.25 1046.227 1403.711 1046.227 1403.711 1046.227 1411.895 1046.227 1411.895 1046.227 1412.356 1046.227 1412.731 1046.603 1412.731 1047.065 1412.731 1047.528 1412.357 1047.901 1411.895 1047.901 1411.895 1047.901 1403.711 1047.901 1403.711 1047.901 Z M1403.711 1043.911 C1403.25 1043.911 1402.875 1043.535 1402.875 1043.073 1402.875 1042.611 1403.25 1042.235 1403.711 1042.235 1403.711 1042.235 1417.983 1042.235 1417.983 1042.235 1418.444 1042.235 1418.817 1042.611 1418.817 1043.073 1418.817 1043.535 1418.444 1043.911 1417.983 1043.911 1417.983 1043.911 1403.711 1043.911 1403.711 1043.911 Z M1432.434 1040.803 C1430.757 1040.803 1429.393 1039.437 1429.393 1037.758 1429.393 1037.758 1429.393 1027.012 1429.393 1027.012 1429.393 1025.556 1430.419 1024.335 1431.786 1024.038 1431.786 1024.038 1431.786 1018.02 1431.786 1018.02 1431.786 1014.38 1434.745 1011.418 1438.381 1011.418 1442.018 1011.418 1444.977 1014.38 1444.977 1018.02 1444.977 1018.02 1444.977 1024.038 1444.977 1024.038 1446.344 1024.335 1447.37 1025.556 1447.37 1027.012 1447.37 1027.012 1447.37 1031.784 1447.37 1031.784 1447.37 1032.246 1446.995 1032.622 1446.534 1032.622 1446.072 1032.622 1445.698 1032.246 1445.698 1031.784 1445.698 1031.784 1445.698 1027.012 1445.698 1027.012 1445.698 1026.257 1445.084 1025.641 1444.328 1025.641 1444.328 1025.641 1432.434 1025.641 1432.434 1025.641 1431.679 1025.641 1431.065 1026.257 1431.065 1027.012 1431.065 1027.012 1431.065 1037.758 1431.065 1037.758 1431.065 1038.514 1431.678 1039.129 1432.434 1039.129 1432.434 1039.129 1444.328 1039.129 1444.328 1039.129 1445.084 1039.129 1445.698 1038.514 1445.698 1037.758 1445.698 1037.758 1445.698 1034.573 1445.698 1034.573 1445.698 1034.111 1446.072 1033.737 1446.534 1033.737 1446.995 1033.737 1447.37 1034.111 1447.37 1034.573 1447.37 1034.573 1447.37 1037.758 1447.37 1037.758 1447.37 1039.437 1446.005 1040.803 1444.328 1040.803 1444.328 1040.803 1432.434 1040.803 1432.434 1040.803 Z M1438.381 1037.239 C1437.92 1037.239 1437.545 1036.865 1437.545 1036.403 1437.545 1036.403 1437.545 1034.364 1437.545 1034.364 1436.245 1033.998 1435.289 1032.8 1435.289 1031.383 1435.289 1029.676 1436.676 1028.29 1438.381 1028.29 1440.086 1028.29 1441.473 1029.676 1441.473 1031.383 1441.473 1032.8 1440.517 1033.998 1439.217 1034.364 1439.217 1034.364 1439.217 1036.403 1439.217 1036.403 1439.217 1036.865 1438.843 1037.239 1438.381 1037.239 Z M1438.381 1032.805 C1439.164 1032.805 1439.803 1032.167 1439.803 1031.383 1439.803 1030.6 1439.164 1029.961 1438.381 1029.961 1437.598 1029.961 1436.961 1030.599 1436.961 1031.383 1436.961 1032.167 1437.598 1032.805 1438.381 1032.805 Z M1413.004 1032.356 C1412.543 1032.356 1412.168 1031.98 1412.168 1031.518 1412.168 1031.056 1412.543 1030.68 1413.004 1030.68 1413.004 1030.68 1427.221 1030.68 1427.221 1030.68 1427.683 1030.68 1428.057 1031.056 1428.057 1031.518 1428.057 1031.98 1427.683 1032.356 1427.221 1032.356 1427.221 1032.356 1413.004 1032.356 1413.004 1032.356 Z M1433.457 1023.967 C1433.457 1023.967 1443.305 1023.967 1443.305 1023.967 1443.305 1023.967 1443.305 1018.02 1443.305 1018.02 1443.305 1015.302 1441.096 1013.092 1438.381 1013.092 1435.666 1013.092 1433.457 1015.302 1433.457 1018.02 1433.457 1018.02 1433.457 1023.967 1433.457 1023.967 Z" fill="#a3bbc8" fill-opacity="1" stroke="none"/>
  <path id="Ellipse-1" d="M1442 1044.063 C1447.419 1044.063 1451.813 1048.448 1451.813 1053.859 1451.813 1059.27 1447.419 1063.656 1442 1063.656 1436.581 1063.656 1432.188 1059.27 1432.188 1053.859 1432.188 1048.448 1436.581 1044.063 1442 1044.063 Z" fill="#a3bbc8" fill-opacity="1" stroke="none"/>
 </g>
</svg>
