<?xml version="1.0" encoding="UTF-8"?>
<svg width="55px" height="38px" viewBox="803 1019 55 38" xmlns="http://www.w3.org/2000/svg" xmlns:xlink="http://www.w3.org/1999/xlink" version="1.1">
 <!-- Generated by Pixelmator Pro 2.2 -->
 <g id="New-Group">
  <path id="delivery-truck" d="M823.367 1049.919 C820.892 1049.919 818.833 1048.099 818.455 1045.726 818.455 1045.726 816.037 1045.726 816.037 1045.726 815.603 1045.726 815.252 1045.375 815.252 1044.941 815.252 1044.941 815.252 1021.353 815.252 1021.353 815.252 1020.919 815.603 1020.568 816.037 1020.568 816.037 1020.568 822.084 1020.568 822.084 1020.568 822.518 1020.568 822.869 1020.919 822.869 1021.353 822.869 1021.788 822.518 1022.14 822.084 1022.14 822.084 1022.14 816.822 1022.14 816.822 1022.14 L816.822 1044.154 C816.822 1044.154 818.455 1044.154 818.455 1044.154 818.833 1041.78 820.892 1039.96 823.367 1039.96 825.843 1039.96 827.902 1041.78 828.279 1044.154 828.279 1044.154 836.615 1044.154 836.615 1044.154 836.615 1044.154 836.615 1043.029 836.615 1043.029 836.615 1042.595 836.966 1042.244 837.4 1042.244 837.834 1042.244 838.186 1042.595 838.186 1043.029 838.186 1043.029 838.186 1044.154 838.186 1044.154 838.186 1044.154 839.531 1044.154 839.531 1044.154 839.909 1041.78 841.968 1039.96 844.443 1039.96 846.919 1039.96 848.978 1041.78 849.355 1044.154 849.355 1044.154 851.352 1044.154 851.352 1044.154 851.352 1044.154 851.352 1030.855 851.352 1030.855 851.352 1027.264 848.432 1024.341 844.844 1024.341 844.844 1024.341 838.186 1024.341 838.186 1024.341 838.186 1024.341 838.186 1039.361 838.186 1039.361 838.186 1039.794 837.834 1040.146 837.4 1040.146 836.966 1040.146 836.615 1039.794 836.615 1039.361 836.615 1039.361 836.615 1022.14 836.615 1022.14 836.615 1022.14 825.225 1022.14 825.225 1022.14 824.791 1022.14 824.439 1021.788 824.439 1021.353 824.439 1020.919 824.791 1020.568 825.225 1020.568 825.225 1020.568 837.4 1020.568 837.4 1020.568 837.834 1020.568 838.186 1020.919 838.186 1021.353 838.186 1021.353 838.186 1022.769 838.186 1022.769 838.186 1022.769 844.844 1022.769 844.844 1022.769 849.299 1022.769 852.922 1026.397 852.922 1030.855 852.922 1030.855 852.922 1044.941 852.922 1044.941 852.922 1045.375 852.57 1045.726 852.137 1045.726 852.137 1045.726 849.354 1045.726 849.354 1045.726 848.976 1048.099 846.919 1049.919 844.443 1049.919 841.968 1049.919 839.909 1048.099 839.531 1045.726 839.531 1045.726 828.279 1045.726 828.279 1045.726 827.902 1048.099 825.843 1049.919 823.367 1049.919 Z M823.367 1048.347 C825.244 1048.347 826.771 1046.82 826.771 1044.941 826.771 1043.063 825.244 1041.535 823.367 1041.535 821.49 1041.535 819.965 1043.063 819.965 1044.941 819.965 1046.82 821.49 1048.347 823.367 1048.347 Z M844.443 1048.347 C846.32 1048.347 847.846 1046.82 847.846 1044.941 847.846 1043.063 846.32 1041.535 844.443 1041.535 842.567 1041.535 841.039 1043.061 841.039 1044.939 841.039 1044.939 841.039 1044.941 841.039 1044.941 841.039 1046.819 842.567 1048.347 844.443 1048.347 Z M823.367 1046.966 C822.251 1046.966 821.342 1046.058 821.342 1044.941 821.342 1043.823 822.251 1042.914 823.367 1042.914 824.484 1042.914 825.393 1043.823 825.393 1044.941 825.393 1046.058 824.484 1046.966 823.367 1046.966 Z M844.443 1046.966 C843.327 1046.966 842.418 1046.058 842.418 1044.941 842.418 1043.823 843.327 1042.914 844.443 1042.914 845.56 1042.914 846.469 1043.823 846.469 1044.941 846.469 1046.058 845.56 1046.966 844.443 1046.966 Z M823.367 1045.396 C823.618 1045.396 823.822 1045.191 823.822 1044.941 823.822 1044.69 823.618 1044.486 823.367 1044.486 823.117 1044.486 822.914 1044.69 822.914 1044.941 822.914 1045.191 823.117 1045.396 823.367 1045.396 Z M844.443 1045.396 C844.693 1045.396 844.896 1045.191 844.896 1044.941 844.896 1044.69 844.694 1044.486 844.443 1044.486 844.193 1044.486 843.988 1044.69 843.988 1044.941 843.988 1045.191 844.193 1045.396 844.443 1045.396 Z M804.596 1044.201 C804.162 1044.201 803.811 1043.85 803.811 1043.416 803.811 1042.981 804.162 1042.628 804.596 1042.628 804.596 1042.628 807.984 1042.628 807.984 1042.628 808.418 1042.628 808.77 1042.981 808.77 1043.416 808.77 1043.85 808.418 1044.201 807.984 1044.201 807.984 1044.201 804.596 1044.201 804.596 1044.201 Z M810.602 1044.201 C810.168 1044.201 809.816 1043.85 809.816 1043.416 809.816 1042.981 810.168 1042.628 810.602 1042.628 810.602 1042.628 811.246 1042.628 811.246 1042.628 811.68 1042.628 812.031 1042.981 812.031 1043.416 812.031 1043.85 811.68 1044.201 811.246 1044.201 811.246 1044.201 810.602 1044.201 810.602 1044.201 Z M848.996 1040.589 C848.562 1040.589 848.209 1040.238 848.209 1039.804 848.209 1039.804 848.209 1037.812 848.209 1037.812 848.209 1037.377 848.562 1037.025 848.996 1037.025 849.43 1037.025 849.781 1037.377 849.781 1037.812 849.781 1037.812 849.781 1039.804 849.781 1039.804 849.781 1040.238 849.43 1040.589 848.996 1040.589 Z M807.738 1037.912 C807.305 1037.912 806.953 1037.561 806.953 1037.126 806.953 1036.692 807.305 1036.339 807.738 1036.339 807.738 1036.339 813.34 1036.339 813.34 1036.339 813.774 1036.339 814.125 1036.692 814.125 1037.126 814.125 1037.561 813.773 1037.912 813.34 1037.912 813.34 1037.912 807.738 1037.912 807.738 1037.912 Z M840.543 1034.876 C840.109 1034.876 839.756 1034.525 839.756 1034.091 839.756 1034.091 839.756 1026.701 839.756 1026.701 839.756 1026.267 840.109 1025.914 840.543 1025.914 840.543 1025.914 844.844 1025.914 844.844 1025.914 847.566 1025.914 849.781 1028.13 849.781 1030.855 849.781 1030.855 849.781 1034.091 849.781 1034.091 849.781 1034.525 849.43 1034.876 848.996 1034.876 848.996 1034.876 840.543 1034.876 840.543 1034.876 Z M841.328 1033.304 C841.328 1033.304 848.209 1033.304 848.209 1033.304 L848.209 1030.855 C848.209 1028.998 846.7 1027.486 844.844 1027.486 844.844 1027.486 841.328 1027.486 841.328 1027.486 L841.328 1033.304 Z M804.596 1033.195 C804.162 1033.195 803.811 1032.842 803.811 1032.408 803.811 1031.974 804.162 1031.623 804.596 1031.623 804.596 1031.623 811.246 1031.623 811.246 1031.623 811.68 1031.623 812.031 1031.974 812.031 1032.408 812.031 1032.842 811.68 1033.195 811.246 1033.195 811.246 1033.195 804.596 1033.195 804.596 1033.195 Z M806.689 1026.906 C806.256 1026.906 805.904 1026.553 805.904 1026.119 805.904 1025.685 806.256 1025.333 806.689 1025.333 806.689 1025.333 812.816 1025.333 812.816 1025.333 813.25 1025.333 813.602 1025.685 813.602 1026.119 813.602 1026.553 813.25 1026.906 812.816 1026.906 812.816 1026.906 806.689 1026.906 806.689 1026.906 Z" fill="#a3bbc8" fill-opacity="1" stroke="none"/>
  <path id="Ellipse-1" d="M847.75 1037.406 C853.169 1037.406 857.562 1041.792 857.562 1047.203 857.562 1052.614 853.169 1057 847.75 1057 842.331 1057 837.937 1052.614 837.937 1047.203 837.937 1041.792 842.331 1037.406 847.75 1037.406 Z" fill="#a3bbc8" fill-opacity="1" stroke="none"/>
 </g>
</svg>
