<?xml version="1.0" encoding="UTF-8"?>
<svg width="21px" height="21px" viewBox="739 1562 21 21" xmlns="http://www.w3.org/2000/svg" xmlns:xlink="http://www.w3.org/1999/xlink" version="1.1">
 <!-- Generated by Pixelmator Pro 2.2 -->
 <path id="Forma-1" d="M758.125 1582.998 C757.645 1582.998 757.165 1582.815 756.799 1582.449 756.799 1582.449 752.211 1577.861 752.211 1577.861 753.274 1577.179 754.178 1576.272 754.861 1575.209 754.861 1575.209 759.451 1579.799 759.451 1579.799 760.184 1580.531 760.184 1581.719 759.451 1582.449 759.086 1582.815 758.605 1582.998 758.125 1582.998 Z M747.5 1577.998 C743.358 1577.998 740 1574.64 740 1570.498 740 1566.357 743.358 1562.998 747.5 1562.998 751.642 1562.998 755 1566.357 755 1570.498 755 1574.64 751.642 1577.998 747.5 1577.998 Z M747.5 1576.123 C750.602 1576.123 753.125 1573.6 753.125 1570.498 753.125 1567.396 750.602 1564.873 747.5 1564.873 744.398 1564.873 741.875 1567.396 741.875 1570.498 741.875 1573.6 744.398 1576.123 747.5 1576.123 Z M743.125 1570.498 C743.125 1568.086 745.088 1566.123 747.5 1566.123 747.5 1566.123 747.5 1567.375 747.5 1567.375 745.777 1567.375 744.375 1568.775 744.375 1570.498 744.375 1570.498 743.125 1570.498 743.125 1570.498 Z" fill="#a3bbc8" fill-opacity="1" stroke="none"/>
</svg>
