<?xml version="1.0" encoding="UTF-8"?>
<svg width="24px" height="21px" viewBox="799 1562 24 21" xmlns="http://www.w3.org/2000/svg" xmlns:xlink="http://www.w3.org/1999/xlink" version="1.1">
 <!-- Generated by Pixelmator Pro 2.2 -->
 <path id="Forma-1" d="M806.484 1582.999 C805.467 1582.999 804.638 1582.17 804.638 1581.151 804.638 1580.132 805.467 1579.303 806.484 1579.303 807.502 1579.303 808.328 1580.132 808.328 1581.151 808.328 1582.17 807.502 1582.999 806.484 1582.999 Z M818.013 1582.999 C817.05 1582.999 816.251 1582.237 816.183 1581.272 816.116 1580.266 816.875 1579.371 817.892 1579.303 818.91 1579.235 819.791 1580.008 819.859 1581.014 819.886 1581.516 819.737 1581.994 819.412 1582.36 819.086 1582.74 818.639 1582.958 818.15 1582.999 818.11 1582.999 818.054 1582.999 818.013 1582.999 Z M807.258 1577.264 C806.891 1577.264 806.565 1577.02 806.471 1576.667 806.471 1576.667 803.146 1564.629 803.146 1564.629 L800.814 1564.629 C800.367 1564.629 800 1564.263 800 1563.815 800 1563.366 800.367 1562.999 800.814 1562.999 800.814 1562.999 803.758 1562.999 803.758 1562.999 804.124 1562.999 804.45 1563.243 804.545 1563.596 804.545 1563.596 807.867 1575.633 807.867 1575.633 L816.93 1575.633 819.939 1568.706 C819.939 1568.706 809.902 1568.706 809.902 1568.706 809.454 1568.706 809.088 1568.338 809.088 1567.889 809.088 1567.44 809.454 1567.075 809.902 1567.075 809.902 1567.075 821.187 1567.075 821.187 1567.075 821.459 1567.075 821.718 1567.21 821.867 1567.44 822.016 1567.672 822.042 1567.957 821.933 1568.215 821.933 1568.215 818.217 1576.776 818.217 1576.776 818.081 1577.075 817.796 1577.264 817.471 1577.264 817.471 1577.264 807.258 1577.264 807.258 1577.264 Z" fill="#ffffff" fill-opacity="1" stroke="none"/>
</svg>
