<?xml version="1.0" encoding="UTF-8"?>
<svg width="23px" height="18px" viewBox="860 1564 23 18" xmlns="http://www.w3.org/2000/svg" xmlns:xlink="http://www.w3.org/1999/xlink" version="1.1">
 <!-- Generated by Pixelmator Pro 2.2 -->
 <path id="Forma-1" d="M882.99 1569.82 C882.907 1568.269 882.25 1566.813 881.141 1565.72 880.016 1564.61 878.545 1563.999 877.002 1563.999 874.691 1563.999 873.054 1565.784 872.175 1566.744 872.125 1566.798 872.071 1566.857 872.019 1566.913 871.991 1566.882 871.963 1566.85 871.936 1566.819 871.132 1565.903 869.46 1563.999 866.998 1563.999 865.455 1563.999 863.985 1564.61 862.859 1565.72 861.75 1566.813 861.093 1568.269 861.01 1569.82 860.928 1571.361 861.32 1572.7 862.281 1574.158 863.142 1575.466 865.385 1577.532 867.044 1578.906 868.749 1580.317 870.994 1581.999 872.009 1581.999 873.041 1581.999 875.278 1580.319 876.974 1578.912 878.62 1577.545 880.85 1575.479 881.72 1574.158 882.366 1573.174 883.095 1571.792 882.99 1569.82 Z M880.614 1573.43 C879.982 1574.391 878.202 1576.166 876.183 1577.848 873.777 1579.852 872.352 1580.643 872.011 1580.674 871.669 1580.639 870.241 1579.841 867.823 1577.831 865.793 1576.145 864.01 1574.377 863.386 1573.429 862.591 1572.223 862.266 1571.132 862.332 1569.891 862.467 1567.372 864.56 1565.322 866.998 1565.322 868.861 1565.322 870.214 1566.864 870.941 1567.692 871.369 1568.18 871.604 1568.447 872 1568.447 872.409 1568.447 872.672 1568.161 873.151 1567.638 873.945 1566.772 875.273 1565.322 877.002 1565.322 879.44 1565.322 881.533 1567.372 881.668 1569.891 881.735 1571.146 881.42 1572.204 880.614 1573.43 Z" fill="#a3bbc8" fill-opacity="1" stroke="none"/>
</svg>
