<svg width="24px" height="16px" viewBox="1045 1945 24 16" xmlns="http://www.w3.org/2000/svg" xmlns:xlink="http://www.w3.org/1999/xlink" version="1.1">
 <path id="Union-6" d="M1052.751 1960.35 C1051.342 1960.267 1050.062 1959.825 1048.928 1958.989 1047.466 1957.912 1046.545 1956.475 1046.158 1954.701 1046.017 1954.058 1045.967 1953.416 1046.02 1952.767 1046.122 1951.234 1046.657 1949.86 1047.64 1948.665 1048.658 1947.415 1049.955 1946.6 1051.505 1946.207 1051.899 1946.104 1052.293 1946.041 1052.694 1946.021 1052.922 1946.013 1053.15 1946 1053.378 1946 1054.593 1946.013 1055.731 1946.318 1056.776 1946.932 1057.477 1947.333 1057.874 1947.74 1058.045 1947.864 1057.329 1948.569 1056.641 1949.259 1055.938 1949.95 1055.416 1949.5 1054.839 1949.087 1053.839 1948.934 1053.632 1948.905 1053.427 1948.89 1053.226 1948.89 1051.219 1948.89 1049.538 1950.341 1049.09 1952.243 1048.983 1952.67 1048.953 1953.106 1048.99 1953.541 1049.143 1955.309 1050.327 1956.759 1051.925 1957.277 1052.332 1957.405 1052.754 1957.466 1053.179 1957.466 1053.278 1957.466 1053.377 1957.463 1053.477 1957.457 1054.23 1957.408 1054.936 1957.208 1055.575 1956.786 1056.65 1956.054 1056.998 1954.908 1057 1954.625 1057 1954.625 1053.154 1954.625 1053.154 1954.625 1053.154 1954.53 1053.168 1952.733 1053.175 1951.855 1053.175 1951.855 1053.182 1951.738 1053.182 1951.738 1053.182 1951.738 1059.936 1951.738 1059.936 1951.738 1060.3 1953.845 1059.972 1956.061 1058.661 1957.794 1057.754 1958.989 1056.547 1959.742 1055.107 1960.115 1054.469 1960.28 1053.821 1960.361 1053.168 1960.361 1053.029 1960.361 1052.89 1960.357 1052.751 1960.35 Z M1066.082 1956.296 C1066.082 1956.296 1064.259 1956.296 1064.259 1956.296 L1064.19 1956.296 1064.19 1956.227 1064.209 1953.796 1061.778 1953.796 1061.702 1953.796 1061.703 1953.72 1061.717 1951.904 1061.717 1951.835 1061.793 1951.835 1064.224 1951.835 1064.242 1949.397 1064.243 1949.328 1064.312 1949.328 1066.135 1949.328 1066.204 1949.328 1066.203 1949.397 1066.185 1951.835 1068.616 1951.835 1068.691 1951.835 1068.691 1951.904 1068.677 1953.72 1068.676 1953.796 1068.601 1953.796 1066.17 1953.796 1066.151 1956.227 1066.151 1956.296 Z"/>
</svg>
