<?xml version="1.0" encoding="UTF-8"?>
<svg width="19px" height="17px" viewBox="1639 70 19 17" xmlns="http://www.w3.org/2000/svg" xmlns:xlink="http://www.w3.org/1999/xlink" version="1.1">
 <!-- Generated by Pixelmator Pro 2.2 -->
 <path id="Shape-55" d="M1648.913 86.245 C1648.818 86.245 1648.722 86.227 1648.633 86.188 1648.28 86.039 1639.983 82.438 1639.983 75.429 1640.074 72.779 1642.19 70.721 1644.801 70.721 1646.544 70.721 1648.067 71.639 1648.913 73.031 1649.76 71.639 1651.282 70.721 1653.025 70.721 1655.635 70.721 1657.75 72.779 1657.842 75.405 1657.842 82.438 1649.545 86.039 1649.193 86.188 1649.103 86.227 1649.008 86.245 1648.913 86.245 Z M1644.801 72.106 C1642.954 72.106 1641.458 73.576 1641.393 75.453 1641.393 80.859 1647.518 84.115 1648.913 84.787 1650.308 84.115 1656.433 80.857 1656.433 75.429 1656.368 73.576 1654.87 72.106 1653.025 72.106 1651.18 72.106 1649.683 73.576 1649.617 75.453 1649.605 75.825 1649.292 76.122 1648.913 76.122 1648.913 76.122 1648.913 76.122 1648.913 76.122 1648.532 76.122 1648.221 75.825 1648.208 75.453 1648.144 73.576 1646.647 72.106 1644.801 72.106 Z" fill="#243f4d" fill-opacity="1" stroke="none"/>
</svg>
