<svg width="19px" height="19px" viewBox="1000 1944 19 19" xmlns="http://www.w3.org/2000/svg" xmlns:xlink="http://www.w3.org/1999/xlink" version="1.1">
 <path id="Union-5" d="M1009.367 1962.193 C1007.32 1962.193 1005.275 1962.118 1004.588 1961.939 1002.637 1961.435 1001.474 1960.164 1001.164 1958.189 1000.933 1956.739 1000.909 1949.999 1001.328 1948.535 1001.874 1946.629 1003.147 1945.51 1005.076 1945.193 1005.95 1945.05 1007.658 1945 1009.384 1945 1010.99 1945 1012.609 1945.044 1013.584 1945.097 1014.764 1945.16 1015.845 1945.538 1016.722 1946.381 1017.558 1947.182 1017.987 1948.183 1018.095 1949.316 1018.223 1950.669 1018.306 1957.063 1017.908 1958.562 1017.375 1960.523 1016.095 1961.683 1014.111 1962.002 1013.37 1962.121 1011.366 1962.193 1009.367 1962.193 Z M1009.447 1960.638 C1011.25 1960.638 1013.021 1960.583 1013.687 1960.51 1015.201 1960.344 1016.202 1959.411 1016.441 1957.906 1016.688 1956.394 1016.688 1950.877 1016.547 1949.461 1016.392 1947.948 1015.468 1946.953 1013.972 1946.719 1013.231 1946.606 1011.447 1946.556 1009.672 1946.556 1007.959 1946.556 1006.255 1946.604 1005.505 1946.685 1004.006 1946.858 1002.998 1947.783 1002.759 1949.275 1002.512 1950.856 1002.514 1956.767 1002.699 1957.955 1002.89 1959.191 1003.589 1960.039 1004.822 1960.385 1005.49 1960.572 1007.487 1960.638 1009.447 1960.638 Z M1009.562 1958.01 C1007.125 1958.01 1005.172 1956.035 1005.191 1953.597 1005.21 1951.16 1007.199 1949.184 1009.636 1949.191 1012.067 1949.191 1014.028 1951.166 1014.009 1953.603 1013.991 1956.034 1012 1958.01 1009.562 1958.01 Z M1009.547 1956.449 C1009.547 1956.449 1009.572 1956.449 1009.572 1956.449 1011.135 1956.449 1012.423 1955.19 1012.449 1953.625 1012.474 1952.043 1011.221 1950.76 1009.646 1950.746 1009.646 1950.746 1009.621 1950.746 1009.621 1950.746 1008.058 1950.746 1006.77 1952.004 1006.744 1953.57 1006.719 1955.145 1007.972 1956.436 1009.547 1956.449 Z M1014.209 1950.054 C1013.636 1950.048 1013.183 1949.586 1013.187 1949.019 1013.192 1948.451 1013.651 1947.99 1014.218 1947.99 1014.218 1947.99 1014.232 1947.99 1014.232 1947.99 1014.799 1947.99 1015.256 1948.452 1015.252 1949.025 1015.247 1949.591 1014.781 1950.054 1014.209 1950.054 Z"/>
</svg>
