<?xml version="1.0" encoding="UTF-8"?>
<svg width="18px" height="13px" viewBox="1166 2884 18 13" xmlns="http://www.w3.org/2000/svg" xmlns:xlink="http://www.w3.org/1999/xlink" version="1.1">
 <!-- Generated by Pixelmator Pro 2.2 -->
 <path id="Shape-2" d="M1167.285 2896.994 C1166.931 2896.994 1166.61 2896.855 1166.377 2896.631 1166.144 2896.406 1166 2896.097 1166 2895.756 1166 2895.756 1166 2885.857 1166 2885.857 1166 2885.496 1166.163 2885.173 1166.42 2884.947 1166.431 2884.937 1166.442 2884.927 1166.453 2884.918 1166.678 2884.733 1166.968 2884.621 1167.285 2884.621 1167.285 2884.621 1182.715 2884.621 1182.715 2884.621 1183.033 2884.621 1183.322 2884.733 1183.547 2884.918 1183.558 2884.927 1183.569 2884.937 1183.58 2884.947 1183.837 2885.173 1184 2885.496 1184 2885.857 1184 2885.857 1184 2895.756 1184 2895.756 1184 2896.097 1183.856 2896.406 1183.623 2896.631 1183.39 2896.855 1183.069 2896.994 1182.715 2896.994 1182.715 2896.994 1167.285 2896.994 1167.285 2896.994 Z M1167.461 2896.17 C1167.797 2896.17 1182.199 2896.17 1182.539 2896.17 1181.723 2895.384 1176.57 2890.427 1176.463 2890.324 1176.345 2890.403 1175.736 2890.814 1175.736 2890.814 1175.516 2890.963 1175.258 2891.037 1175 2891.037 1174.742 2891.037 1174.482 2890.963 1174.262 2890.814 1174.262 2890.814 1173.652 2890.405 1173.535 2890.326 1173.425 2890.432 1168.277 2895.385 1167.461 2896.17 Z M1166.857 2895.586 C1167.661 2894.812 1172.527 2890.13 1172.822 2889.845 1171.107 2888.69 1167.412 2886.2 1166.859 2885.828 1166.859 2885.838 1166.857 2885.847 1166.857 2885.857 1166.857 2885.857 1166.857 2895.257 1166.857 2895.586 Z M1183.143 2895.586 C1183.143 2895.257 1183.143 2885.857 1183.143 2885.857 1183.143 2885.847 1183.141 2885.838 1183.141 2885.828 1182.588 2886.2 1178.895 2888.687 1177.178 2889.844 1177.472 2890.126 1182.339 2894.812 1183.143 2895.586 Z M1175 2890.213 C1175.086 2890.213 1175.173 2890.188 1175.246 2890.138 1175.246 2890.138 1180.907 2886.325 1182.213 2885.445 L1167.787 2885.445 C1169.093 2886.325 1174.754 2890.138 1174.754 2890.138 1174.827 2890.188 1174.914 2890.213 1175 2890.213 Z" fill="#436372" fill-opacity="1" stroke="none"/>
</svg>
