
<svg width="38px" height="35px" viewBox="941 616 38 35" xmlns="http://www.w3.org/2000/svg" xmlns:xlink="http://www.w3.org/1999/xlink" version="1.1">
 <path id="icon" d="M942.976 650.918 C942.725 650.918 942.484 650.82 942.306 650.646 942.129 650.472 942.028 650.235 942.027 649.988 942.027 649.988 942 629.785 942 629.785 942 629.779 942 629.776 942 629.769 942.004 629.479 942.148 629.194 942.41 629.015 942.41 629.015 947.73 625.398 947.73 625.398 947.73 625.398 947.73 621.56 947.73 621.56 947.73 621.047 948.156 620.629 948.68 620.629 948.68 620.629 954.746 620.629 954.746 620.629 954.746 620.629 959.963 617.084 959.963 617.084 960.288 616.862 960.719 616.863 961.043 617.084 961.043 617.084 966.226 620.629 966.226 620.629 966.226 620.629 972.32 620.629 972.32 620.629 972.844 620.629 973.267 621.047 973.267 621.56 973.267 621.56 973.267 625.443 973.267 625.443 973.267 625.443 978.564 629.064 978.564 629.064 978.753 629.194 978.881 629.378 978.937 629.582 978.959 629.628 978.971 629.713 978.971 629.767 978.971 629.767 978.998 649.937 978.998 649.937 978.999 650.451 978.576 650.87 978.053 650.871 978.053 650.871 942.976 650.918 942.976 650.918 Z M945.748 649.051 L975.226 649.01 960.513 637.785 945.748 649.051 Z M943.92 648.086 L955.363 639.357 943.896 631.562 943.92 648.086 Z M977.101 648.082 L977.078 631.517 965.64 639.338 977.101 648.082 Z M956.933 638.158 C956.933 638.158 959.933 635.869 959.933 635.869 960.278 635.606 960.749 635.615 961.082 635.861 961.087 635.864 961.089 635.866 961.094 635.869 961.094 635.869 964.072 638.142 964.072 638.142 L971.373 633.15 971.373 622.492 949.627 622.492 949.627 633.189 956.933 638.158 Z M954.086 632.931 C953.562 632.931 953.137 632.514 953.137 632 953.137 631.486 953.562 631.066 954.086 631.066 954.086 631.066 966.914 631.066 966.914 631.066 967.437 631.066 967.861 631.486 967.861 632 967.861 632.514 967.437 632.931 966.914 632.931 L954.086 632.931 Z M947.73 631.902 L947.73 627.662 944.613 629.783 947.73 631.902 Z M973.267 631.853 L976.295 629.783 973.267 627.713 973.267 631.853 Z M954.086 628.086 C953.562 628.086 953.137 627.668 953.137 627.154 953.137 626.639 953.562 626.22 954.086 626.22 954.086 626.22 966.914 626.22 966.914 626.22 967.437 626.22 967.861 626.639 967.861 627.154 967.861 627.668 967.437 628.086 966.914 628.086 L954.086 628.086 Z M958.08 620.629 L962.908 620.629 960.5 618.984 958.08 620.629 Z" />
</svg>
