<svg width="31px" height="45px" viewBox="544 611 31 45" xmlns="http://www.w3.org/2000/svg" xmlns:xlink="http://www.w3.org/1999/xlink" version="1.1">
 <path id="icon" d="M559.5 656 C559.191 656 558.884 655.936 558.597 655.809 L552.013 652.893 C552.013 652.893 546.34 655.402 546.34 655.402 545.697 655.687 544.965 655.547 544.474 655.047 543.985 654.548 543.861 653.816 544.162 653.184 544.162 653.184 549.156 642.668 549.156 642.668 549.261 642.445 549.438 642.266 549.66 642.156 550.204 641.885 550.869 642.104 551.142 642.646 551.308 642.978 551.291 643.353 551.129 643.656 551.129 643.656 546.785 652.801 546.785 652.801 546.785 652.801 551.105 650.887 551.105 650.887 551.679 650.632 552.339 650.632 552.912 650.887 552.912 650.887 559.494 653.803 559.494 653.803 559.494 653.803 559.501 653.803 559.504 653.803 559.504 653.803 559.506 653.803 559.506 653.803 559.506 653.803 566.09 650.887 566.09 650.887 566.661 650.632 567.319 650.632 567.894 650.887 567.894 650.887 572.215 652.801 572.215 652.801 572.215 652.801 567.873 643.654 567.873 643.654 567.654 643.247 567.709 642.73 568.047 642.379 568.431 641.977 569.048 641.93 569.488 642.244 569.638 642.351 569.761 642.497 569.843 642.668 569.843 642.668 574.838 653.186 574.838 653.186 575.137 653.817 575.016 654.547 574.525 655.047 574.036 655.547 573.303 655.687 572.662 655.402 572.662 655.402 566.998 652.893 566.998 652.893 566.998 652.893 560.402 655.809 560.402 655.809 560.115 655.936 559.807 656 559.5 656 Z M559.5 649.82 C558.32 649.82 557.255 649.218 556.65 648.209 556.65 648.209 547.103 632.283 547.103 632.283 547.092 632.263 547.079 632.241 547.068 632.221 546.055 630.253 545.528 628.037 545.541 625.811 545.563 622.168 547.005 618.727 549.601 616.121 552.198 613.515 555.643 612.052 559.302 612 563.069 611.949 566.62 613.37 569.3 616.002 571.982 618.633 573.459 622.146 573.459 625.895 573.459 628.123 572.945 630.251 571.931 632.221 571.92 632.241 571.908 632.263 571.896 632.283 571.896 632.283 562.349 648.209 562.349 648.209 561.745 649.218 560.68 649.82 559.5 649.82 Z M559.5 647.625 C559.69 647.625 560.162 647.571 560.455 647.084 560.455 647.084 569.984 631.189 569.984 631.189 570.827 629.541 571.254 627.759 571.254 625.895 571.254 622.739 570.009 619.781 567.752 617.564 565.536 615.39 562.614 614.197 559.506 614.197 559.448 614.197 559.391 614.196 559.334 614.197 552.983 614.284 547.786 619.5 547.748 625.822 547.736 627.713 548.162 629.519 549.015 631.189 549.015 631.189 558.545 647.084 558.545 647.084 558.836 647.571 559.31 647.625 559.5 647.625 Z M559.5 630.922 C556.714 630.922 554.449 628.667 554.449 625.895 554.449 623.122 556.714 620.867 559.5 620.867 562.284 620.867 564.55 623.122 564.55 625.895 564.55 628.667 562.284 630.922 559.5 630.922 Z M559.5 628.727 C561.068 628.727 562.343 627.456 562.343 625.895 562.343 624.334 561.068 623.063 559.5 623.063 557.931 623.063 556.656 624.334 556.656 625.895 556.656 627.456 557.931 628.727 559.5 628.727 Z"/>
</svg>
