<?xml version="1.0" encoding="UTF-8"?>
<svg width="64px" height="57px" viewBox="470 1273 64 57" xmlns="http://www.w3.org/2000/svg" xmlns:xlink="http://www.w3.org/1999/xlink" version="1.1">
 <!-- Generated by Pixelmator Pro 2.2 -->
 <path id="Shape-1" d="M490.547 1330 C489.954 1330 489.473 1329.521 489.473 1328.929 489.473 1328.337 489.954 1327.857 490.547 1327.857 490.547 1327.857 494.18 1327.857 494.18 1327.857 L495.057 1320.857 C495.057 1320.857 473.365 1320.857 473.365 1320.857 471.51 1320.857 470 1319.351 470 1317.5 470 1317.5 470 1276.357 470 1276.357 470 1274.506 471.51 1273 473.365 1273 473.365 1273 530.635 1273 530.635 1273 532.49 1273 534 1274.506 534 1276.357 534 1276.357 534 1317.5 534 1317.5 534 1319.351 532.49 1320.857 530.635 1320.857 530.635 1320.857 508.943 1320.857 508.943 1320.857 L509.82 1327.857 C509.82 1327.857 513.453 1327.857 513.453 1327.857 514.046 1327.857 514.527 1328.337 514.527 1328.929 514.527 1329.521 514.046 1330 513.453 1330 513.453 1330 490.547 1330 490.547 1330 Z M496.344 1327.857 L507.656 1327.857 506.779 1320.857 497.221 1320.857 C497.221 1320.857 496.344 1327.857 496.344 1327.857 Z M473.365 1318.714 C473.365 1318.714 530.635 1318.714 530.635 1318.714 531.306 1318.714 531.852 1318.169 531.852 1317.5 531.852 1317.5 531.852 1276.357 531.852 1276.357 531.852 1275.687 531.306 1275.142 530.635 1275.142 530.635 1275.142 473.365 1275.142 473.365 1275.142 472.694 1275.142 472.148 1275.687 472.148 1276.357 472.148 1276.357 472.148 1317.5 472.148 1317.5 472.148 1318.169 472.694 1318.714 473.365 1318.714 Z M475.656 1315.142 C475.063 1315.142 474.582 1314.662 474.582 1314.07 474.582 1314.07 474.582 1278.642 474.582 1278.642 474.582 1278.05 475.063 1277.572 475.656 1277.572 475.656 1277.572 520.326 1277.572 520.326 1277.572 520.919 1277.572 521.4 1278.051 521.4 1278.642 521.4 1279.234 520.919 1279.714 520.326 1279.714 520.326 1279.714 476.728 1279.714 476.728 1279.714 L476.728 1313 C476.728 1313 479.092 1313 479.092 1313 479.685 1313 480.166 1313.479 480.166 1314.07 480.166 1314.662 479.685 1315.142 479.092 1315.142 479.092 1315.142 475.656 1315.142 475.656 1315.142 Z M483.674 1315.142 C483.081 1315.142 482.6 1314.662 482.6 1314.07 482.6 1313.478 483.081 1313 483.674 1313 483.674 1313 527.271 1313 527.271 1313 L527.271 1279.714 C527.271 1279.714 524.908 1279.714 524.908 1279.714 524.315 1279.714 523.834 1279.233 523.834 1278.642 523.834 1278.05 524.315 1277.572 524.908 1277.572 524.908 1277.572 528.344 1277.572 528.344 1277.572 528.937 1277.572 529.418 1278.05 529.418 1278.642 529.418 1278.642 529.418 1314.07 529.418 1314.07 529.418 1314.662 528.937 1315.142 528.344 1315.142 528.344 1315.142 483.674 1315.142 483.674 1315.142 Z M495.51 1310.572 C494.917 1310.572 494.435 1310.091 494.435 1309.5 494.435 1309.5 494.435 1300.357 494.435 1300.357 494.435 1299.765 494.917 1299.285 495.51 1299.285 496.103 1299.285 496.584 1299.765 496.584 1300.357 496.584 1300.357 496.584 1309.5 496.584 1309.5 496.584 1310.091 496.103 1310.572 495.51 1310.572 Z M508.49 1310.572 C507.897 1310.572 507.416 1310.091 507.416 1309.5 507.416 1309.5 507.416 1307.214 507.416 1307.214 507.416 1306.622 507.897 1306.142 508.49 1306.142 509.083 1306.142 509.564 1306.622 509.564 1307.214 509.564 1307.214 509.564 1309.5 509.564 1309.5 509.564 1310.091 509.083 1310.572 508.49 1310.572 Z M521.473 1310.57 C520.88 1310.57 520.398 1310.091 520.398 1309.5 520.398 1309.5 520.398 1293.5 520.398 1293.5 520.398 1292.908 520.88 1292.427 521.473 1292.427 522.066 1292.427 522.547 1292.908 522.547 1293.5 522.547 1293.5 522.547 1309.5 522.547 1309.5 522.547 1310.091 522.066 1310.57 521.473 1310.57 Z M482.527 1309.429 C480.672 1309.429 479.164 1307.921 479.164 1306.07 479.164 1304.219 480.672 1302.714 482.527 1302.714 483.082 1302.714 483.605 1302.85 484.066 1303.087 484.066 1303.087 492.473 1294.947 492.473 1294.947 492.262 1294.509 492.144 1294.017 492.144 1293.5 492.144 1291.648 493.654 1290.142 495.51 1290.142 497.365 1290.142 498.873 1291.648 498.873 1293.5 498.873 1293.684 498.859 1293.864 498.83 1294.041 498.83 1294.041 506.178 1297.921 506.178 1297.921 506.781 1297.35 507.595 1297 508.49 1297 508.993 1297 509.47 1297.11 509.898 1297.308 509.898 1297.308 518.502 1288.218 518.502 1288.218 518.25 1287.748 518.107 1287.212 518.107 1286.642 518.107 1284.791 519.617 1283.285 521.473 1283.285 523.328 1283.285 524.836 1284.791 524.836 1286.642 524.836 1288.493 523.328 1290 521.473 1290 520.97 1290 520.493 1289.889 520.064 1289.691 520.064 1289.691 511.461 1298.781 511.461 1298.781 511.713 1299.251 511.855 1299.787 511.855 1300.357 511.855 1302.208 510.345 1303.714 508.49 1303.714 506.635 1303.714 505.127 1302.208 505.127 1300.357 505.127 1300.173 505.141 1299.993 505.17 1299.816 505.17 1299.816 497.822 1295.933 497.822 1295.933 497.219 1296.505 496.405 1296.857 495.51 1296.857 494.955 1296.857 494.432 1296.721 493.971 1296.484 493.971 1296.484 485.564 1304.625 485.564 1304.625 485.775 1305.063 485.893 1305.552 485.893 1306.07 485.893 1307.921 484.382 1309.429 482.527 1309.429 Z M482.527 1307.285 C483.198 1307.285 483.744 1306.74 483.744 1306.07 483.744 1305.4 483.198 1304.857 482.527 1304.857 481.856 1304.857 481.31 1305.4 481.31 1306.07 481.31 1306.74 481.856 1307.285 482.527 1307.285 Z M508.49 1301.572 C509.161 1301.572 509.707 1301.026 509.707 1300.357 509.707 1299.687 509.161 1299.142 508.49 1299.142 507.819 1299.142 507.273 1299.687 507.273 1300.357 507.273 1301.026 507.819 1301.572 508.49 1301.572 Z M495.51 1294.714 C496.181 1294.714 496.727 1294.169 496.727 1293.5 496.727 1292.83 496.181 1292.285 495.51 1292.285 494.839 1292.285 494.293 1292.83 494.293 1293.5 494.293 1294.169 494.839 1294.714 495.51 1294.714 Z M521.473 1287.857 C522.144 1287.857 522.689 1287.312 522.689 1286.642 522.689 1285.972 522.144 1285.429 521.473 1285.429 520.802 1285.429 520.256 1285.972 520.256 1286.642 520.256 1287.312 520.802 1287.857 521.473 1287.857 Z" fill="#243f4d" fill-opacity="1" stroke="none"/>
</svg>
