<?xml version="1.0" encoding="UTF-8"?>
<svg width="37px" height="38px" viewBox="992 921 37 38" xmlns="http://www.w3.org/2000/svg" xmlns:xlink="http://www.w3.org/1999/xlink" version="1.1">
 <!-- Generated by Pixelmator Pro 2.2 -->
 <path id="Shape-1" d="M993.976 958.96 C992.888 958.96 992.002 958.066 992.002 956.968 992.002 956.968 992.002 929.691 992.002 929.691 992.002 929.449 992.098 929.219 992.267 929.048 992.267 929.048 999.742 921.505 999.742 921.505 999.911 921.334 1000.141 921.238 1000.38 921.238 1000.38 921.238 1019.472 921.238 1019.472 921.238 1020.559 921.238 1021.445 922.132 1021.445 923.23 1021.445 923.23 1021.445 926.103 1021.445 926.103 1021.445 926.605 1021.04 927.013 1020.543 927.013 1020.044 927.013 1019.64 926.605 1019.64 926.103 1019.64 926.103 1019.64 923.23 1019.64 923.23 1019.64 923.135 1019.564 923.06 1019.472 923.06 1019.472 923.06 1001.283 923.06 1001.283 923.06 1001.283 923.06 1001.283 928.613 1001.283 928.613 1001.283 929.71 1000.398 930.603 999.31 930.603 999.31 930.603 993.806 930.603 993.806 930.603 993.806 930.603 993.806 956.968 993.806 956.968 993.806 957.062 993.883 957.14 993.976 957.14 993.976 957.14 1019.472 957.14 1019.472 957.14 1019.564 957.14 1019.64 957.062 1019.64 956.968 1019.64 956.968 1019.64 943.068 1019.64 943.068 1019.64 942.565 1020.044 942.157 1020.543 942.157 1021.04 942.157 1021.445 942.565 1021.445 943.068 1021.445 943.068 1021.445 956.968 1021.445 956.968 1021.445 958.066 1020.56 958.96 1019.472 958.96 L993.976 958.96 Z M999.06 952.49 C998.562 952.49 998.158 952.083 998.158 951.579 998.158 951.077 998.562 950.669 999.06 950.669 999.06 950.669 1003 950.669 1003 950.669 1003 950.669 1004.392 945.605 1004.392 945.605 1004.434 945.453 1004.514 945.316 1004.625 945.204 1004.625 945.204 1004.638 945.189 1004.638 945.189 1004.638 945.189 999.06 945.189 999.06 945.189 998.562 945.189 998.158 944.782 998.158 944.279 998.158 943.776 998.562 943.368 999.06 943.368 999.06 943.368 1006.443 943.368 1006.443 943.368 L1011.875 937.888 C1011.875 937.888 999.06 937.888 999.06 937.888 998.562 937.888 998.158 937.482 998.158 936.98 998.158 936.477 998.562 936.068 999.06 936.068 999.06 936.068 1013.679 936.068 1013.679 936.068 1013.679 936.068 1022.109 927.566 1022.109 927.566 1023.3 926.364 1025.237 926.364 1026.427 927.566 1026.427 927.566 1027.488 928.636 1027.488 928.636 1028.679 929.837 1028.679 931.791 1027.488 932.991 1027.488 932.991 1010.004 950.632 1010.004 950.632 1009.893 950.743 1009.756 950.824 1009.607 950.866 1009.607 950.866 1003.916 952.458 1003.912 952.46 1003.883 952.468 1003.685 952.49 1003.685 952.49 L999.06 952.49 Z M1004.982 950.273 L1007.634 949.529 1005.718 947.595 1004.982 950.273 Z M1009.365 948.7 L1023.8 934.14 1020.972 931.286 1006.539 945.849 1009.365 948.7 Z M1025.076 932.853 C1025.076 932.853 1026.213 931.704 1026.213 931.704 1026.7 931.213 1026.7 930.414 1026.213 929.923 1026.213 929.923 1025.15 928.851 1025.15 928.851 1024.907 928.605 1024.587 928.484 1024.267 928.484 1023.947 928.484 1023.628 928.605 1023.384 928.851 L1022.248 929.999 1025.076 932.853 Z M995.084 928.782 C995.084 928.782 999.31 928.782 999.31 928.782 999.403 928.782 999.478 928.706 999.478 928.613 999.478 928.613 999.478 924.347 999.478 924.347 L995.084 928.782 Z" fill="#a3bbc8" fill-opacity="1" stroke="none"/>
</svg>
