<svg width="38px" height="45px" viewBox="1341 611 38 45" xmlns="http://www.w3.org/2000/svg" xmlns:xlink="http://www.w3.org/1999/xlink" version="1.1">
 <path id="icon" d="M1360.5 655.917 C1357.711 655.917 1355.441 653.677 1355.441 650.923 1355.441 648.169 1357.711 645.927 1360.5 645.927 1363.29 645.927 1365.558 648.169 1365.558 650.923 1365.558 653.678 1363.29 655.917 1360.5 655.917 Z M1360.5 653.968 C1362.201 653.968 1363.584 652.602 1363.584 650.923 1363.584 649.244 1362.201 647.878 1360.5 647.878 1358.8 647.878 1357.414 649.244 1357.414 650.923 1357.414 652.602 1358.8 653.968 1360.5 653.968 Z M1347.058 644.581 C1344.268 644.581 1342 642.339 1342 639.585 1342 636.83 1344.269 634.591 1347.058 634.591 1349.848 634.591 1352.119 636.83 1352.119 639.585 1352.119 642.339 1349.848 644.581 1347.058 644.581 Z M1360.5 644.581 C1357.711 644.581 1355.441 642.339 1355.441 639.585 1355.441 636.83 1357.711 634.591 1360.5 634.591 1363.29 634.591 1365.558 636.83 1365.558 639.585 1365.558 642.339 1363.29 644.581 1360.5 644.581 Z M1373.941 644.581 C1371.151 644.581 1368.881 642.339 1368.881 639.585 1368.881 636.83 1371.151 634.591 1373.941 634.591 1376.73 634.591 1379 636.83 1379 639.585 1379 642.339 1376.73 644.581 1373.941 644.581 Z M1347.058 642.632 C1348.759 642.632 1350.142 641.265 1350.142 639.585 1350.142 637.906 1348.759 636.54 1347.058 636.54 1345.357 636.54 1343.974 637.906 1343.974 639.585 1343.974 641.265 1345.357 642.632 1347.058 642.632 Z M1360.5 642.632 C1362.201 642.632 1363.584 641.265 1363.584 639.585 1363.584 637.906 1362.201 636.54 1360.5 636.54 1358.8 636.54 1357.414 637.906 1357.414 639.585 1357.414 641.265 1358.8 642.632 1360.5 642.632 Z M1373.941 642.632 C1375.641 642.632 1377.025 641.265 1377.025 639.585 1377.025 637.906 1375.641 636.54 1373.941 636.54 1372.24 636.54 1370.857 637.906 1370.857 639.585 1370.857 641.265 1372.24 642.632 1373.941 642.632 Z M1347.058 633.245 C1344.268 633.245 1342 631.004 1342 628.249 1342 625.495 1344.269 623.255 1347.058 623.255 1349.848 623.255 1352.119 625.495 1352.119 628.249 1352.119 631.004 1349.848 633.245 1347.058 633.245 Z M1360.5 633.245 C1357.711 633.245 1355.441 631.004 1355.441 628.249 1355.441 625.495 1357.711 623.255 1360.5 623.255 1363.29 623.255 1365.558 625.495 1365.558 628.249 1365.558 631.004 1363.29 633.245 1360.5 633.245 Z M1373.941 633.245 C1371.151 633.245 1368.881 631.004 1368.881 628.249 1368.881 625.495 1371.151 623.255 1373.941 623.255 1376.73 623.255 1379 625.495 1379 628.249 1379 631.004 1376.73 633.245 1373.941 633.245 Z M1347.058 631.294 C1348.759 631.294 1350.142 629.929 1350.142 628.249 1350.142 626.57 1348.759 625.204 1347.058 625.204 1345.357 625.204 1343.974 626.57 1343.974 628.249 1343.974 629.929 1345.357 631.294 1347.058 631.294 Z M1360.5 631.294 C1362.201 631.294 1363.584 629.929 1363.584 628.249 1363.584 626.57 1362.201 625.204 1360.5 625.204 1358.8 625.204 1357.414 626.57 1357.414 628.249 1357.414 629.929 1358.8 631.294 1360.5 631.294 Z M1373.941 631.294 C1375.641 631.294 1377.025 629.929 1377.025 628.249 1377.025 626.57 1375.641 625.204 1373.941 625.204 1372.24 625.204 1370.857 626.57 1370.857 628.249 1370.857 629.929 1372.24 631.294 1373.941 631.294 Z M1347.058 621.909 C1344.268 621.909 1342 619.667 1342 616.913 1342 614.158 1344.269 611.917 1347.058 611.917 1349.848 611.917 1352.119 614.158 1352.119 616.913 1352.119 619.667 1349.848 621.909 1347.058 621.909 Z M1360.5 621.909 C1357.711 621.909 1355.441 619.667 1355.441 616.913 1355.441 614.158 1357.711 611.917 1360.5 611.917 1363.29 611.917 1365.558 614.158 1365.558 616.913 1365.558 619.667 1363.29 621.909 1360.5 621.909 Z M1373.941 621.909 C1371.151 621.909 1368.881 619.667 1368.881 616.913 1368.881 614.158 1371.151 611.917 1373.941 611.917 1376.73 611.917 1379 614.158 1379 616.913 1379 619.667 1376.73 621.909 1373.941 621.909 Z M1347.058 619.958 C1348.759 619.958 1350.142 618.592 1350.142 616.913 1350.142 615.233 1348.759 613.868 1347.058 613.868 1345.357 613.868 1343.974 615.233 1343.974 616.913 1343.974 618.592 1345.357 619.958 1347.058 619.958 Z M1360.5 619.958 C1362.201 619.958 1363.584 618.592 1363.584 616.913 1363.584 615.233 1362.201 613.868 1360.5 613.868 1358.8 613.868 1357.414 615.233 1357.414 616.913 1357.414 618.592 1358.8 619.958 1360.5 619.958 Z M1373.941 619.958 C1375.641 619.958 1377.025 618.592 1377.025 616.913 1377.025 615.233 1375.641 613.868 1373.941 613.868 1372.24 613.868 1370.857 615.233 1370.857 616.913 1370.857 618.592 1372.24 619.958 1373.941 619.958 Z"/>
</svg>
