<?xml version="1.0" encoding="UTF-8"?>
<svg width="67px" height="64px" viewBox="1078 1269 67 64" xmlns="http://www.w3.org/2000/svg" xmlns:xlink="http://www.w3.org/1999/xlink" version="1.1">
 <!-- Generated by Pixelmator Pro 2.2 -->
 <path id="Shape-1" d="M1122.778 1333 C1120.278 1333 1117.358 1332.359 1114.125 1331.074 1107.597 1328.478 1100.455 1323.538 1094.014 1317.164 1087.573 1310.79 1082.581 1303.722 1079.958 1297.261 1077.215 1290.508 1077.375 1285.135 1080.407 1282.134 1080.407 1282.134 1084.698 1277.888 1084.698 1277.888 1085.758 1276.839 1087.203 1276.35 1088.661 1276.548 1090.052 1276.737 1091.24 1277.536 1091.922 1278.738 1091.922 1278.738 1098.442 1290.205 1098.442 1290.205 1099.44 1291.96 1099.131 1294.181 1097.692 1295.605 1097.692 1295.605 1093.622 1299.63 1093.622 1299.63 1092.788 1300.456 1092.686 1301.776 1093.381 1302.703 1095.47 1305.484 1097.852 1308.204 1100.459 1310.785 1103.067 1313.365 1105.814 1315.721 1108.625 1317.789 1109.562 1318.477 1110.897 1318.375 1111.731 1317.55 1111.731 1317.55 1115.799 1313.523 1115.799 1313.523 1117.239 1312.099 1119.483 1311.793 1121.256 1312.781 1121.256 1312.781 1132.846 1319.232 1132.846 1319.232 1134.06 1319.908 1134.866 1321.084 1135.057 1322.46 1135.257 1323.903 1134.764 1325.333 1133.704 1326.382 1133.704 1326.382 1129.411 1330.628 1129.411 1330.628 1127.815 1332.208 1125.555 1333 1122.778 1333 Z M1122.731 1330.841 C1124.938 1330.846 1126.703 1330.271 1127.875 1329.111 1127.875 1329.111 1129.819 1327.187 1129.819 1327.187 1129.819 1327.187 1120.5 1322.158 1120.5 1322.158 1119.974 1321.874 1119.78 1321.221 1120.067 1320.701 1120.354 1320.18 1121.013 1319.989 1121.54 1320.273 1121.54 1320.273 1131.418 1325.605 1131.418 1325.605 1131.418 1325.605 1132.168 1324.863 1132.168 1324.863 1132.744 1324.293 1133.014 1323.524 1132.907 1322.753 1132.809 1322.048 1132.399 1321.446 1131.782 1321.103 1131.782 1321.103 1120.194 1314.654 1120.194 1314.654 1119.265 1314.137 1118.088 1314.296 1117.334 1315.042 1117.334 1315.042 1115.399 1316.958 1115.399 1316.958 1115.399 1316.958 1117.301 1317.986 1117.301 1317.986 1117.828 1318.27 1118.022 1318.922 1117.735 1319.443 1117.538 1319.8 1117.166 1320.001 1116.782 1320.001 1116.606 1320.001 1116.429 1319.96 1116.264 1319.871 1116.264 1319.871 1113.799 1318.541 1113.799 1318.541 1113.799 1318.541 1113.266 1319.068 1113.266 1319.068 1111.677 1320.64 1109.126 1320.832 1107.333 1319.513 1104.437 1317.384 1101.607 1314.959 1098.924 1312.304 1096.242 1309.65 1093.791 1306.85 1091.639 1303.984 1090.306 1302.209 1090.5 1299.685 1092.088 1298.113 1092.088 1298.113 1092.622 1297.583 1092.622 1297.583 1092.622 1297.583 1087.235 1287.812 1087.235 1287.812 1086.948 1287.292 1087.14 1286.639 1087.667 1286.355 1088.193 1286.071 1088.852 1286.262 1089.139 1286.783 1089.139 1286.783 1094.221 1296.001 1094.221 1296.001 1094.221 1296.001 1096.157 1294.085 1096.157 1294.085 1096.911 1293.339 1097.072 1292.177 1096.549 1291.257 1096.549 1291.257 1090.032 1279.789 1090.032 1279.789 1089.685 1279.178 1089.076 1278.774 1088.364 1278.677 1088.251 1278.662 1088.139 1278.654 1088.028 1278.654 1087.365 1278.654 1086.726 1278.918 1086.233 1279.406 1086.233 1279.406 1085.483 1280.148 1085.483 1280.148 1085.483 1280.148 1086.827 1282.587 1086.827 1282.587 1087.114 1283.108 1086.919 1283.76 1086.393 1284.044 1086.228 1284.134 1086.051 1284.175 1085.875 1284.175 1085.491 1284.175 1085.119 1283.974 1084.922 1283.617 1084.922 1283.617 1083.883 1281.732 1083.883 1281.732 1083.883 1281.732 1081.94 1283.654 1081.94 1283.654 1079.596 1285.973 1079.608 1290.641 1081.971 1296.46 1084.488 1302.658 1089.309 1309.47 1095.547 1315.644 1101.786 1321.818 1108.673 1326.589 1114.936 1329.08 1117.876 1330.249 1120.524 1330.836 1122.731 1330.841 Z M1133.499 1316.964 C1133.214 1316.964 1132.936 1316.851 1132.731 1316.648 1132.474 1316.394 1132.363 1316.031 1132.434 1315.679 1132.434 1315.679 1133.59 1309.953 1133.59 1309.953 1133.708 1309.371 1134.28 1308.993 1134.868 1309.109 1135.455 1309.226 1135.837 1309.791 1135.719 1310.373 1135.719 1310.373 1135.235 1312.767 1135.235 1312.767 1140.08 1308.218 1142.831 1301.935 1142.831 1295.273 1142.831 1281.97 1131.892 1271.148 1118.45 1271.148 1110.527 1271.148 1103.07 1274.979 1098.502 1281.398 1098.157 1281.883 1097.481 1282.001 1096.991 1281.66 1096.501 1281.318 1096.384 1280.648 1096.729 1280.164 1101.703 1273.174 1109.822 1269 1118.45 1269 1133.089 1269 1145 1280.786 1145 1295.273 1145 1302.424 1142.095 1309.173 1136.959 1314.109 1136.959 1314.109 1139.073 1313.691 1139.073 1313.691 1139.66 1313.575 1140.232 1313.951 1140.35 1314.533 1140.468 1315.114 1140.086 1315.68 1139.499 1315.796 1139.499 1315.796 1133.711 1316.943 1133.711 1316.943 1133.641 1316.957 1133.569 1316.964 1133.499 1316.964 Z M1108.032 1314.201 C1107.848 1314.201 1107.662 1314.154 1107.491 1314.056 1106.972 1313.76 1106.795 1313.103 1107.094 1312.589 1107.094 1312.589 1108.25 1310.607 1108.25 1310.607 1108.55 1310.094 1109.214 1309.916 1109.733 1310.212 1110.252 1310.509 1110.431 1311.166 1110.131 1311.679 1110.131 1311.679 1108.973 1313.664 1108.973 1313.664 1108.772 1314.008 1108.407 1314.201 1108.032 1314.201 Z M1128.87 1314.201 C1128.495 1314.201 1128.129 1314.008 1127.928 1313.664 1127.928 1313.664 1126.77 1311.679 1126.77 1311.679 1126.47 1311.166 1126.65 1310.509 1127.168 1310.212 1127.687 1309.916 1128.351 1310.094 1128.651 1310.607 1128.651 1310.607 1129.807 1312.589 1129.807 1312.589 1130.107 1313.103 1129.93 1313.761 1129.411 1314.058 1129.24 1314.156 1129.054 1314.201 1128.87 1314.201 Z M1100.409 1306.656 C1100.034 1306.656 1099.668 1306.461 1099.467 1306.117 1099.168 1305.604 1099.347 1304.948 1099.866 1304.652 1099.866 1304.652 1101.87 1303.505 1101.87 1303.505 1102.389 1303.208 1103.052 1303.384 1103.352 1303.898 1103.652 1304.411 1103.474 1305.068 1102.956 1305.365 1102.956 1305.365 1100.95 1306.511 1100.95 1306.511 1100.779 1306.609 1100.593 1306.656 1100.409 1306.656 Z M1136.493 1306.654 C1136.309 1306.654 1136.123 1306.609 1135.952 1306.511 1135.952 1306.511 1133.946 1305.365 1133.946 1305.365 1133.427 1305.069 1133.25 1304.411 1133.549 1303.898 1133.849 1303.385 1134.513 1303.208 1135.032 1303.505 1135.032 1303.505 1137.036 1304.65 1137.036 1304.65 1137.555 1304.947 1137.734 1305.603 1137.434 1306.117 1137.233 1306.461 1136.868 1306.654 1136.493 1306.654 Z M1106.875 1303.218 C1106.276 1303.218 1105.79 1302.737 1105.79 1302.144 1105.79 1298.861 1108.476 1297.411 1110.844 1296.132 1113.461 1294.719 1115.051 1293.703 1115.051 1291.509 1115.051 1289.755 1113.461 1288.328 1111.506 1288.328 1109.552 1288.328 1107.961 1289.755 1107.961 1291.509 1107.961 1292.102 1107.475 1292.582 1106.875 1292.582 1106.276 1292.582 1105.792 1292.102 1105.792 1291.509 1105.792 1288.571 1108.355 1286.181 1111.506 1286.181 1114.658 1286.181 1117.221 1288.571 1117.221 1291.509 1117.221 1295.136 1114.261 1296.735 1111.883 1298.019 1109.957 1299.059 1108.621 1299.84 1108.149 1301.07 1108.149 1301.07 1116.135 1301.07 1116.135 1301.07 1116.734 1301.07 1117.221 1301.551 1117.221 1302.144 1117.221 1302.737 1116.734 1303.218 1116.135 1303.218 1116.135 1303.218 1106.875 1303.218 1106.875 1303.218 Z M1127.709 1303.218 C1127.11 1303.218 1126.625 1302.737 1126.625 1302.144 1126.625 1302.144 1126.625 1298.636 1126.625 1298.636 1126.625 1298.636 1119.608 1298.636 1119.608 1298.636 1119.279 1298.636 1118.968 1298.488 1118.762 1298.234 1118.556 1297.979 1118.478 1297.647 1118.549 1297.33 1118.549 1297.33 1120.864 1287.021 1120.864 1287.021 1120.994 1286.442 1121.573 1286.078 1122.159 1286.207 1122.744 1286.335 1123.113 1286.909 1122.983 1287.488 1122.983 1287.488 1120.961 1296.49 1120.961 1296.49 L1126.625 1296.49 C1126.625 1296.49 1126.625 1287.253 1126.625 1287.253 1126.625 1286.66 1127.11 1286.181 1127.709 1286.181 1128.309 1286.181 1128.795 1286.66 1128.795 1287.253 1128.795 1287.253 1128.795 1296.49 1128.795 1296.49 1128.795 1296.49 1130.026 1296.49 1130.026 1296.49 1130.625 1296.49 1131.11 1296.969 1131.11 1297.562 1131.11 1298.155 1130.625 1298.636 1130.026 1298.636 1130.026 1298.636 1128.795 1298.636 1128.795 1298.636 1128.795 1298.636 1128.795 1302.144 1128.795 1302.144 1128.795 1302.737 1128.309 1303.218 1127.709 1303.218 Z M1136.969 1296.347 C1136.37 1296.347 1135.885 1295.866 1135.885 1295.273 1135.885 1294.68 1136.37 1294.199 1136.969 1294.199 1136.969 1294.199 1139.286 1294.199 1139.286 1294.199 1139.885 1294.199 1140.37 1294.68 1140.37 1295.273 1140.37 1295.866 1139.885 1296.347 1139.286 1296.347 1139.286 1296.347 1136.969 1296.347 1136.969 1296.347 Z M1102.411 1287.183 C1102.227 1287.183 1102.041 1287.137 1101.87 1287.039 1101.87 1287.039 1099.866 1285.894 1099.866 1285.894 1099.347 1285.597 1099.168 1284.941 1099.467 1284.427 1099.767 1283.913 1100.431 1283.738 1100.95 1284.035 1100.95 1284.035 1102.956 1285.179 1102.956 1285.179 1103.474 1285.476 1103.652 1286.133 1103.352 1286.646 1103.151 1286.991 1102.786 1287.183 1102.411 1287.183 Z M1134.491 1287.183 C1134.116 1287.183 1133.75 1286.991 1133.549 1286.646 1133.25 1286.133 1133.427 1285.476 1133.946 1285.179 1133.946 1285.179 1135.952 1284.035 1135.952 1284.035 1136.47 1283.738 1137.134 1283.913 1137.434 1284.427 1137.734 1284.941 1137.554 1285.597 1137.036 1285.894 1137.036 1285.894 1135.032 1287.039 1135.032 1287.039 1134.861 1287.136 1134.675 1287.183 1134.491 1287.183 Z M1109.192 1280.476 C1108.817 1280.476 1108.452 1280.283 1108.25 1279.939 1108.25 1279.939 1107.094 1277.955 1107.094 1277.955 1106.794 1277.441 1106.972 1276.784 1107.491 1276.488 1108.01 1276.191 1108.673 1276.367 1108.973 1276.88 1108.973 1276.88 1110.131 1278.865 1110.131 1278.865 1110.431 1279.378 1110.252 1280.035 1109.733 1280.332 1109.562 1280.429 1109.376 1280.476 1109.192 1280.476 Z M1127.709 1280.476 C1127.525 1280.476 1127.339 1280.429 1127.168 1280.332 1126.65 1280.035 1126.47 1279.379 1126.77 1278.865 1126.77 1278.865 1127.928 1276.88 1127.928 1276.88 1128.228 1276.367 1128.892 1276.191 1129.411 1276.488 1129.93 1276.784 1130.107 1277.441 1129.807 1277.955 1129.807 1277.955 1128.651 1279.937 1128.651 1279.937 1128.45 1280.281 1128.085 1280.476 1127.709 1280.476 Z M1118.45 1278.019 C1117.85 1278.019 1117.366 1277.538 1117.366 1276.945 1117.366 1276.945 1117.366 1274.656 1117.366 1274.656 1117.366 1274.063 1117.85 1273.582 1118.45 1273.582 1119.049 1273.582 1119.535 1274.063 1119.536 1274.656 1119.536 1274.656 1119.536 1276.945 1119.536 1276.945 1119.536 1277.538 1119.049 1278.019 1118.45 1278.019 Z" fill="#243f4d" fill-opacity="1" stroke="none"/>
</svg>
