<?xml version="1.0" encoding="UTF-8"?>
<svg width="128px" height="128px" viewBox="896 3835 128 128" xmlns="http://www.w3.org/2000/svg" xmlns:xlink="http://www.w3.org/1999/xlink" version="1.1">
 <!-- Generated by Pixelmator Pro 2.2 -->
 <g id="New-Group">
  <path id="Ellipse-11" d="M960.5 3836 C995.57 3836 1024 3864.43 1024 3899.5 1024 3934.57 995.57 3963 960.5 3963 925.43 3963 897 3934.57 897 3899.5 897 3864.43 925.43 3836 960.5 3836 Z" fill="#a3bbc8" fill-opacity="1" stroke="none"/>
  <path id="Ellipse-11-1" d="M960 3850 C987.062 3850 1009 3871.938 1009 3899 1009 3926.062 987.062 3948 960 3948 932.938 3948 911 3926.062 911 3899 911 3871.938 932.938 3850 960 3850 Z" fill="#a3bbc8" fill-opacity="1" stroke="none"/>
  <path id="Form-24" d="M970.684 3900.74 C970.684 3900.74 954.64 3910.536 954.64 3910.536 954.139 3910.843 953.559 3910.997 952.977 3910.997 952.498 3910.997 952.017 3910.892 951.578 3910.68 950.606 3910.21 949.999 3909.293 949.999 3908.295 949.999 3908.295 949.999 3888.7 949.999 3888.7 949.999 3887.701 950.606 3886.783 951.578 3886.313 952.549 3885.845 953.727 3885.9 954.64 3886.457 954.64 3886.457 970.684 3896.255 970.684 3896.255 971.506 3896.757 971.999 3897.598 971.999 3898.497 971.999 3899.396 971.506 3900.237 970.684 3900.74 Z" fill="#ffffff" fill-opacity="1" stroke="none"/>
 </g>
</svg>
