<svg width="128" height="128" viewBox="0 0 128 128" fill="none" xmlns="http://www.w3.org/2000/svg">
<g clip-path="url(#clip0_50_605)">
<path d="M64.5 1C99.57 1 128 29.43 128 64.5C128 99.57 99.57 128 64.5 128C29.43 128 1 99.57 1 64.5C1 29.43 29.43 1 64.5 1Z" fill="#A3BBC8" fill-opacity="0.4"/>
<path d="M64 15C91.062 15 113 36.938 113 64C113 91.062 91.062 113 64 113C36.938 113 15 91.062 15 64C15 36.938 36.938 15 64 15Z" fill="#A3BBC8"/>
<path d="M74.684 65.74L58.64 75.5359C58.139 75.8429 57.559 75.9971 56.977 75.9971C56.498 75.9971 56.017 75.892 55.578 75.68C54.606 75.21 53.999 74.293 53.999 73.295V53.7C53.999 52.701 54.606 51.783 55.578 51.313C56.549 50.845 57.727 50.9001 58.64 51.4571L74.684 61.2549C75.506 61.7569 75.999 62.5981 75.999 63.4971C75.999 64.3961 75.506 65.237 74.684 65.74Z" fill="white"/>
</g>
<defs>
<clipPath id="clip0_50_605">
<rect width="128" height="128" fill="white"/>
</clipPath>
</defs>
</svg>
