<?xml version="1.0" encoding="UTF-8"?>
<svg width="49px" height="64px" viewBox="1381 1269 49 64" xmlns="http://www.w3.org/2000/svg" xmlns:xlink="http://www.w3.org/1999/xlink" version="1.1">
 <!-- Generated by Pixelmator Pro 2.2 -->
 <path id="Shape-1" d="M1394.412 1333 C1394.088 1333 1393.781 1332.839 1393.594 1332.568 1393.594 1332.568 1390.385 1327.923 1390.385 1327.923 1390.385 1327.923 1384.812 1328.595 1384.812 1328.595 1384.455 1328.639 1384.103 1328.483 1383.89 1328.191 1383.677 1327.898 1383.636 1327.512 1383.783 1327.181 1383.783 1327.181 1390.707 1311.591 1390.707 1311.591 1390.707 1311.591 1389.683 1311.339 1389.683 1311.339 1388.439 1311.036 1387.48 1310.068 1387.179 1308.812 1387.179 1308.812 1386.586 1306.337 1386.586 1306.337 1386.507 1306.011 1386.316 1305.722 1386.047 1305.525 1386.047 1305.525 1384.011 1304.031 1384.011 1304.031 1382.974 1303.269 1382.453 1302 1382.652 1300.72 1382.652 1300.72 1383.045 1298.208 1383.045 1298.208 1383.096 1297.877 1383.028 1297.538 1382.855 1297.251 1382.855 1297.251 1381.543 1295.078 1381.543 1295.078 1380.877 1293.975 1380.877 1292.604 1381.543 1291.501 1381.543 1291.501 1382.855 1289.328 1382.855 1289.328 1383.028 1289.041 1383.096 1288.7 1383.045 1288.369 1383.045 1288.369 1382.652 1285.857 1382.652 1285.857 1382.453 1284.577 1382.974 1283.308 1384.011 1282.546 1384.011 1282.546 1386.049 1281.052 1386.049 1281.052 1386.318 1280.854 1386.509 1280.566 1386.588 1280.24 1386.588 1280.24 1387.179 1277.765 1387.179 1277.765 1387.481 1276.509 1388.441 1275.542 1389.685 1275.238 1389.685 1275.238 1392.135 1274.638 1392.135 1274.638 1392.458 1274.559 1392.745 1274.367 1392.941 1274.095 1392.941 1274.095 1394.422 1272.039 1394.422 1272.039 1395.177 1270.991 1396.434 1270.466 1397.701 1270.667 1397.701 1270.667 1400.187 1271.062 1400.187 1271.062 1400.516 1271.114 1400.853 1271.047 1401.136 1270.873 1401.136 1270.873 1403.291 1269.546 1403.291 1269.546 1404.383 1268.874 1405.74 1268.874 1406.832 1269.546 1406.832 1269.546 1408.986 1270.873 1408.986 1270.873 1409.27 1271.047 1409.607 1271.114 1409.935 1271.062 1409.935 1271.062 1412.424 1270.667 1412.424 1270.667 1413.691 1270.466 1414.948 1270.993 1415.703 1272.041 1415.703 1272.041 1417.183 1274.095 1417.183 1274.095 1417.379 1274.367 1417.667 1274.561 1417.99 1274.64 1417.99 1274.64 1420.439 1275.238 1420.439 1275.238 1421.684 1275.542 1422.644 1276.511 1422.945 1277.767 1422.945 1277.767 1423.537 1280.24 1423.537 1280.24 1423.615 1280.566 1423.807 1280.856 1424.076 1281.054 1424.076 1281.054 1426.113 1282.548 1426.113 1282.548 1427.151 1283.311 1427.67 1284.579 1427.47 1285.859 1427.47 1285.859 1427.08 1288.369 1427.08 1288.369 1427.028 1288.7 1427.094 1289.041 1427.267 1289.328 1427.267 1289.328 1428.582 1291.501 1428.582 1291.501 1429.248 1292.604 1429.248 1293.975 1428.582 1295.078 L1427.267 1297.251 C1427.094 1297.538 1427.028 1297.877 1427.08 1298.208 1427.08 1298.208 1427.47 1300.722 1427.47 1300.722 1427.67 1302.002 1427.149 1303.269 1426.111 1304.031 1426.111 1304.031 1424.076 1305.527 1424.076 1305.527 1423.807 1305.724 1423.615 1306.012 1423.537 1306.339 1423.537 1306.339 1422.943 1308.812 1422.943 1308.812 1422.642 1310.068 1421.682 1311.038 1420.437 1311.341 1420.437 1311.341 1419.453 1311.582 1419.453 1311.582 1419.453 1311.582 1426.381 1327.181 1426.381 1327.181 1426.528 1327.513 1426.488 1327.898 1426.275 1328.191 1426.062 1328.483 1425.708 1328.638 1425.351 1328.595 1425.351 1328.595 1419.781 1327.923 1419.781 1327.923 1419.781 1327.923 1416.57 1332.568 1416.57 1332.568 1416.382 1332.839 1416.076 1333 1415.752 1333 1415.721 1333 1415.689 1332.999 1415.658 1332.996 1415.3 1332.961 1414.989 1332.735 1414.842 1332.404 1414.842 1332.404 1407.761 1316.46 1407.761 1316.46 1407.761 1316.46 1406.832 1317.031 1406.832 1317.031 1406.286 1317.367 1405.675 1317.535 1405.062 1317.535 1404.45 1317.535 1403.837 1317.367 1403.291 1317.031 1403.291 1317.031 1402.394 1316.48 1402.394 1316.48 1402.394 1316.48 1395.324 1332.404 1395.324 1332.404 1395.177 1332.735 1394.864 1332.961 1394.506 1332.996 1394.474 1332.999 1394.443 1333 1394.412 1333 Z M1394.222 1329.955 L1400.635 1315.519 C1400.488 1315.494 1400.336 1315.491 1400.187 1315.515 1400.187 1315.515 1397.699 1315.91 1397.699 1315.91 1397.362 1315.963 1397.026 1315.965 1396.701 1315.919 1396.701 1315.919 1393.392 1323.371 1393.392 1323.371 1393.226 1323.745 1392.863 1323.966 1392.482 1323.966 1392.346 1323.966 1392.207 1323.938 1392.074 1323.878 1391.571 1323.651 1391.345 1323.054 1391.57 1322.546 1391.57 1322.546 1394.892 1315.068 1394.892 1315.068 1394.72 1314.91 1394.56 1314.734 1394.42 1314.539 1394.42 1314.539 1392.939 1312.484 1392.939 1312.484 1392.854 1312.365 1392.75 1312.261 1392.635 1312.175 1392.635 1312.175 1386.326 1326.382 1386.326 1326.382 1386.326 1326.382 1390.742 1325.849 1390.742 1325.849 1391.108 1325.805 1391.469 1325.968 1391.679 1326.273 1391.679 1326.273 1394.222 1329.955 1394.222 1329.955 Z M1415.941 1329.955 C1415.941 1329.955 1418.486 1326.273 1418.486 1326.273 1418.697 1325.968 1419.057 1325.805 1419.424 1325.849 1419.424 1325.849 1423.838 1326.382 1423.838 1326.382 L1417.519 1312.154 C1417.391 1312.244 1417.277 1312.354 1417.183 1312.484 1417.183 1312.484 1415.703 1314.539 1415.703 1314.539 1415.57 1314.722 1415.42 1314.889 1415.26 1315.041 1415.26 1315.041 1418.594 1322.546 1418.594 1322.546 1418.819 1323.054 1418.595 1323.651 1418.092 1323.878 1417.959 1323.939 1417.82 1323.966 1417.683 1323.966 1417.302 1323.966 1416.937 1323.744 1416.771 1323.371 1416.771 1323.371 1413.461 1315.914 1413.461 1315.914 1413.123 1315.965 1412.774 1315.965 1412.424 1315.91 1412.424 1315.91 1409.935 1315.515 1409.935 1315.515 1409.8 1315.493 1409.664 1315.495 1409.529 1315.513 1409.529 1315.513 1415.941 1329.955 1415.941 1329.955 Z M1405.062 1315.519 C1405.315 1315.519 1405.567 1315.449 1405.793 1315.31 1405.793 1315.31 1407.947 1313.984 1407.947 1313.984 1408.635 1313.561 1409.45 1313.399 1410.246 1313.525 1410.246 1313.525 1412.734 1313.919 1412.734 1313.919 1413.258 1314.003 1413.776 1313.786 1414.088 1313.353 1414.088 1313.353 1415.568 1311.298 1415.568 1311.298 1416.042 1310.64 1416.736 1310.171 1417.519 1309.98 1417.519 1309.98 1419.969 1309.382 1419.969 1309.382 1420.482 1309.257 1420.879 1308.856 1421.004 1308.337 1421.004 1308.337 1421.595 1305.865 1421.595 1305.865 1421.785 1305.074 1422.248 1304.375 1422.9 1303.896 1422.9 1303.896 1424.937 1302.402 1424.937 1302.402 1425.366 1302.087 1425.58 1301.563 1425.498 1301.035 1425.498 1301.035 1425.107 1298.523 1425.107 1298.523 1424.982 1297.72 1425.143 1296.896 1425.562 1296.203 1425.562 1296.203 1426.877 1294.027 1426.877 1294.027 1427.152 1293.572 1427.152 1293.005 1426.877 1292.55 1426.877 1292.55 1425.562 1290.376 1425.562 1290.376 1425.143 1289.683 1424.982 1288.859 1425.107 1288.056 1425.107 1288.056 1425.498 1285.544 1425.498 1285.544 1425.58 1285.016 1425.366 1284.492 1424.937 1284.177 1424.937 1284.177 1422.902 1282.683 1422.902 1282.683 1422.25 1282.205 1421.787 1281.506 1421.597 1280.714 1421.597 1280.714 1421.004 1278.242 1421.004 1278.242 1420.879 1277.723 1420.484 1277.322 1419.97 1277.197 1419.97 1277.197 1417.519 1276.597 1417.519 1276.597 1416.736 1276.406 1416.044 1275.939 1415.57 1275.281 1415.57 1275.281 1414.088 1273.226 1414.088 1273.226 1413.776 1272.794 1413.257 1272.577 1412.734 1272.66 1412.734 1272.66 1410.246 1273.054 1410.246 1273.054 1409.451 1273.181 1408.634 1273.017 1407.947 1272.593 1407.947 1272.593 1405.793 1271.267 1405.793 1271.267 1405.342 1270.99 1404.783 1270.99 1404.332 1271.267 1404.332 1271.267 1402.177 1272.593 1402.177 1272.593 1401.49 1273.017 1400.672 1273.181 1399.877 1273.054 1399.877 1273.054 1397.39 1272.66 1397.39 1272.66 1396.867 1272.576 1396.349 1272.794 1396.037 1273.226 1396.037 1273.226 1394.554 1275.281 1394.554 1275.281 1394.08 1275.938 1393.389 1276.406 1392.605 1276.597 1392.605 1276.597 1390.154 1277.195 1390.154 1277.195 1389.64 1277.321 1389.245 1277.721 1389.121 1278.24 1389.121 1278.24 1388.527 1280.714 1388.527 1280.714 1388.337 1281.505 1387.874 1282.204 1387.222 1282.683 1387.222 1282.683 1385.187 1284.177 1385.187 1284.177 1384.759 1284.492 1384.542 1285.016 1384.625 1285.544 1384.625 1285.544 1385.017 1288.056 1385.017 1288.056 1385.142 1288.859 1384.979 1289.683 1384.56 1290.376 1384.56 1290.376 1383.248 1292.55 1383.248 1292.55 1382.973 1293.005 1382.973 1293.572 1383.248 1294.027 1383.248 1294.027 1384.56 1296.201 1384.56 1296.201 1384.979 1296.895 1385.142 1297.72 1385.017 1298.523 1385.017 1298.523 1384.625 1301.035 1384.625 1301.035 1384.542 1301.563 1384.757 1302.085 1385.185 1302.4 1385.185 1302.4 1387.222 1303.894 1387.222 1303.894 1387.874 1304.373 1388.338 1305.074 1388.527 1305.865 1388.527 1305.865 1389.119 1308.337 1389.119 1308.337 1389.243 1308.856 1389.64 1309.257 1390.154 1309.382 1390.154 1309.382 1392.603 1309.98 1392.603 1309.98 1393.387 1310.172 1394.08 1310.639 1394.554 1311.296 1394.554 1311.296 1396.035 1313.353 1396.035 1313.353 1396.346 1313.785 1396.865 1314.003 1397.388 1313.919 1397.388 1313.919 1399.877 1313.525 1399.877 1313.525 1400.052 1313.497 1400.228 1313.482 1400.404 1313.482 1401.026 1313.482 1401.64 1313.654 1402.176 1313.984 1402.176 1313.984 1404.332 1315.31 1404.332 1315.31 1404.557 1315.449 1404.809 1315.519 1405.062 1315.519 Z M1404.998 1311.476 C1401.111 1311.476 1397.213 1310.215 1393.953 1307.654 1393.518 1307.312 1393.438 1306.679 1393.777 1306.24 1394.116 1305.8 1394.744 1305.722 1395.179 1306.064 1401.543 1311.063 1410.648 1310.485 1416.359 1304.72 1421.272 1299.761 1422.469 1292.226 1419.34 1285.97 1419.091 1285.473 1419.289 1284.868 1419.781 1284.617 1420.274 1284.366 1420.874 1284.565 1421.123 1285.062 1424.642 1292.096 1423.294 1300.568 1417.769 1306.144 1414.273 1309.674 1409.644 1311.476 1404.998 1311.476 Z M1391.554 1304.826 C1391.257 1304.826 1390.962 1304.692 1390.765 1304.437 1385.196 1297.213 1385.838 1286.876 1392.26 1280.394 1397.785 1274.816 1406.181 1273.456 1413.15 1277.011 1413.643 1277.262 1413.838 1277.87 1413.59 1278.367 1413.341 1278.864 1412.742 1279.063 1412.25 1278.812 1406.052 1275.651 1398.586 1276.86 1393.672 1281.82 1387.961 1287.585 1387.39 1296.776 1392.342 1303.199 1392.68 1303.638 1392.601 1304.271 1392.166 1304.613 1391.983 1304.756 1391.769 1304.826 1391.554 1304.826 Z M1398.898 1304.369 C1398.527 1304.369 1398.159 1304.252 1397.842 1304.019 1397.265 1303.596 1396.992 1302.896 1397.131 1302.191 1397.131 1302.191 1398.31 1296.199 1398.31 1296.199 1398.31 1296.199 1393.869 1292.052 1393.869 1292.052 1393.346 1291.564 1393.159 1290.837 1393.379 1290.154 1393.599 1289.47 1394.173 1288.993 1394.881 1288.908 1394.881 1288.908 1400.888 1288.189 1400.888 1288.189 1400.888 1288.189 1403.424 1282.642 1403.424 1282.642 1403.722 1281.989 1404.35 1281.583 1405.062 1281.583 1405.775 1281.583 1406.403 1281.989 1406.701 1282.642 1406.701 1282.642 1409.234 1288.187 1409.234 1288.187 1409.234 1288.187 1415.242 1288.908 1415.242 1288.908 1415.949 1288.993 1416.526 1289.47 1416.746 1290.154 1416.966 1290.838 1416.777 1291.564 1416.254 1292.052 1416.254 1292.052 1411.812 1296.199 1411.812 1296.199 1411.812 1296.199 1412.992 1302.191 1412.992 1302.191 1413.131 1302.896 1412.859 1303.596 1412.283 1304.019 1411.707 1304.441 1410.963 1304.485 1410.342 1304.134 1410.342 1304.134 1405.062 1301.152 1405.062 1301.152 1405.062 1301.152 1399.783 1304.134 1399.783 1304.134 1399.504 1304.292 1399.2 1304.369 1398.898 1304.369 Z M1399.172 1302.169 C1399.172 1302.169 1404.574 1299.117 1404.574 1299.117 1404.726 1299.031 1404.894 1298.988 1405.062 1298.988 1405.23 1298.988 1405.397 1299.031 1405.549 1299.117 1405.549 1299.117 1410.951 1302.169 1410.951 1302.169 1410.951 1302.169 1409.746 1296.039 1409.746 1296.039 1409.678 1295.695 1409.792 1295.341 1410.047 1295.103 L1414.592 1290.859 C1414.592 1290.859 1408.443 1290.125 1408.443 1290.125 1408.098 1290.083 1407.8 1289.863 1407.654 1289.544 1407.654 1289.544 1405.062 1283.871 1405.062 1283.871 1405.062 1283.871 1402.469 1289.544 1402.469 1289.544 1402.323 1289.863 1402.024 1290.083 1401.679 1290.125 1401.679 1290.125 1395.531 1290.859 1395.531 1290.859 1395.531 1290.859 1400.076 1295.103 1400.076 1295.103 1400.331 1295.341 1400.446 1295.695 1400.379 1296.039 1400.379 1296.039 1399.172 1302.169 1399.172 1302.169 Z M1417.795 1282.898 C1417.518 1282.898 1417.244 1282.783 1417.047 1282.558 1416.826 1282.306 1416.595 1282.058 1416.359 1281.82 1416.123 1281.581 1415.876 1281.347 1415.627 1281.125 1415.214 1280.756 1415.173 1280.12 1415.539 1279.703 1415.904 1279.285 1416.536 1279.246 1416.949 1279.615 1417.229 1279.865 1417.504 1280.126 1417.769 1280.394 1418.035 1280.662 1418.295 1280.939 1418.543 1281.222 1418.908 1281.639 1418.868 1282.278 1418.455 1282.646 1418.265 1282.815 1418.03 1282.898 1417.795 1282.898 Z" fill="#243f4d" fill-opacity="1" stroke="none"/>
</svg>
