<?xml version="1.0" encoding="UTF-8"?>
<svg width="43px" height="42px" viewBox="1387 919 43 42" xmlns="http://www.w3.org/2000/svg" xmlns:xlink="http://www.w3.org/1999/xlink" version="1.1">
 <!-- Generated by Pixelmator Pro 2.2 -->
 <path id="Shape-1" d="M1408.246 960.17 C1403.646 960.17 1399.904 956.368 1399.904 951.695 1399.904 950.382 1400.2 949.137 1400.728 948.025 1400.728 948.025 1387.509 927.578 1387.509 927.578 1387.277 927.218 1387.325 926.744 1387.625 926.439 1387.625 926.439 1393.943 920.021 1393.943 920.021 1394.111 919.851 1394.337 919.756 1394.574 919.756 1394.574 919.756 1421.92 919.756 1421.92 919.756 1422.156 919.756 1422.383 919.851 1422.55 920.021 1422.55 920.021 1428.869 926.439 1428.869 926.439 1429.167 926.744 1429.215 927.218 1428.984 927.578 1428.984 927.578 1415.765 948.025 1415.765 948.025 1416.293 949.136 1416.589 950.382 1416.589 951.695 1416.589 956.368 1412.845 960.17 1408.246 960.17 Z M1408.246 958.357 C1411.861 958.357 1414.804 955.369 1414.804 951.695 1414.804 948.023 1411.861 945.033 1408.246 945.033 1404.629 945.033 1401.687 948.023 1401.687 951.695 1401.687 955.369 1404.629 958.357 1408.246 958.357 Z M1408.55 956 C1408.057 956 1407.656 955.592 1407.656 955.092 L1407.656 950.191 C1407.656 950.191 1407.13 950.191 1407.13 950.191 1406.638 950.191 1406.24 949.785 1406.24 949.285 1406.24 948.784 1406.638 948.377 1407.13 948.377 1407.13 948.377 1408.55 948.377 1408.55 948.377 1409.042 948.377 1409.441 948.784 1409.441 949.285 1409.441 949.285 1409.441 955.092 1409.441 955.092 1409.441 955.592 1409.042 956 1408.55 956 Z M1414.714 946.35 C1414.714 946.35 1426.584 927.986 1426.584 927.986 L1420.246 927.986 1410.238 943.465 C1412.024 943.911 1413.587 944.944 1414.714 946.35 Z M1401.779 946.348 C1402.907 944.943 1404.469 943.911 1406.255 943.465 1406.255 943.465 1396.248 927.986 1396.248 927.986 L1389.908 927.986 1401.779 946.348 Z M1408.232 943.221 C1408.237 943.221 1408.241 943.221 1408.246 943.221 1408.25 943.221 1408.255 943.221 1408.259 943.221 1408.259 943.221 1418.109 927.986 1418.109 927.986 L1398.382 927.986 1408.232 943.221 Z M1390.41 926.174 C1390.41 926.174 1396.728 926.174 1396.728 926.174 1396.734 926.174 1396.741 926.174 1396.748 926.174 1396.748 926.174 1419.746 926.174 1419.746 926.174 1419.752 926.174 1419.759 926.174 1419.765 926.174 1419.765 926.174 1426.084 926.174 1426.084 926.174 L1421.548 921.568 1394.943 921.568 1390.41 926.174 Z" fill="#a3bbc8" fill-opacity="1" stroke="none"/>
</svg>
