<?xml version="1.0" encoding="UTF-8"?>
<svg width="1 8px" height="18px" viewBox="1512 401 18 18" xmlns="http://www.w3.org/2000/svg" xmlns:xlink="http://www.w3.org/1999/xlink" version="1.1">
 <!-- Generated by Pixelmator Pro 2.2 -->
 <path id="Shape-76" d="M1529.249 418.92 C1529.098 418.92 1528.946 418.862 1528.83 418.746 1528.83 418.746 1523.531 413.448 1523.531 413.448 1522.398 414.394 1520.941 414.961 1519.353 414.961 1515.752 414.961 1512.822 412.032 1512.822 408.431 1512.822 404.83 1515.752 401.899 1519.353 401.899 1522.955 401.899 1525.884 404.83 1525.884 408.431 1525.884 410.018 1525.316 411.475 1524.371 412.608 1524.371 412.608 1529.669 417.907 1529.669 417.907 1529.785 418.023 1529.843 418.175 1529.843 418.327 1529.843 418.478 1529.785 418.63 1529.669 418.746 1529.553 418.862 1529.401 418.92 1529.249 418.92 Z M1519.353 403.087 C1516.407 403.087 1514.01 405.484 1514.01 408.431 1514.01 411.377 1516.407 413.775 1519.353 413.775 1522.3 413.775 1524.698 411.377 1524.698 408.431 1524.698 405.484 1522.3 403.087 1519.353 403.087 Z" fill="#f0f0f0" fill-opacity="1" stroke="none"/>
</svg>
