<?xml version="1.0" encoding="UTF-8"?>
<svg width="17px" height="17px" viewBox="1544 65 17 17" xmlns="http://www.w3.org/2000/svg" xmlns:xlink="http://www.w3.org/1999/xlink" version="1.1">
 <!-- Generated by Pixelmator Pro 2.2 -->
 <path id="icon" d="M1557.693 81.292 C1557.079 81.301 1556.349 81.064 1555.589 80.318 1555.589 80.318 1553.531 77.968 1553.531 77.968 1552.751 78.313 1551.892 78.507 1550.984 78.507 1547.516 78.507 1544.705 75.706 1544.705 72.25 1544.705 68.794 1547.511 65.998 1550.98 65.998 1554.445 65.998 1557.259 68.797 1557.259 72.253 1557.259 73.183 1557.056 74.064 1556.691 74.857 1556.691 74.857 1559.027 76.894 1559.027 76.894 1560.73 78.64 1559.772 80.16 1559.32 80.611 1559.083 80.866 1558.483 81.281 1557.693 81.292 Z M1557.695 80.037 C1557.927 80.025 1558.17 79.94 1558.406 79.74 1558.615 79.563 1559.04 78.671 1558.179 77.867 1558.179 77.867 1556.017 75.986 1556.017 75.986 1555.633 76.498 1555.175 76.953 1554.654 77.326 L1556.525 79.513 C1556.726 79.736 1557.184 80.063 1557.695 80.037 Z M1550.98 77.201 C1553.722 77.201 1555.945 74.985 1555.945 72.253 1555.945 69.521 1553.722 67.306 1550.98 67.306 1548.238 67.306 1546.015 69.521 1546.015 72.253 1546.015 74.985 1548.235 77.201 1550.98 77.201 Z M1550.625 76.087 C1550.582 76.09 1550.538 76.09 1550.494 76.085 1549.683 75.924 1548.938 75.536 1548.351 74.955 1547.768 74.374 1547.379 73.626 1547.216 72.818 1547.151 72.464 1547.344 72.142 1547.703 72.076 1548.058 72.011 1548.381 72.206 1548.447 72.56 1548.543 73.142 1548.804 73.628 1549.228 74.05 1549.649 74.438 1550.168 74.727 1550.72 74.826 1551.045 74.891 1551.274 75.216 1551.208 75.57 1551.151 75.853 1550.92 76.065 1550.625 76.087 Z" fill="#f0f0f0" fill-opacity="1" stroke="none"/>
</svg>
