<?xml version="1.0" encoding="UTF-8"?>
<svg width="44px" height="40px" viewBox="1190 920 44 40" xmlns="http://www.w3.org/2000/svg" xmlns:xlink="http://www.w3.org/1999/xlink" version="1.1">
 <!-- Generated by Pixelmator Pro 2.2 -->
 <path id="Shape-1" d="M1202.821 959.439 C1201.936 959.439 1201.137 958.865 1200.834 958.011 1200.834 958.011 1195.995 944.289 1195.995 944.289 1194.963 943.82 1194.214 942.818 1194.077 941.625 1194.077 941.625 1192.715 941.625 1192.715 941.625 1191.226 941.625 1190.014 940.379 1190.014 938.849 1190.014 938.849 1190.014 932.755 1190.014 932.755 1190.014 931.226 1191.226 929.98 1192.715 929.98 1192.715 929.98 1194.077 929.98 1194.077 929.98 1194.267 928.322 1195.642 927.031 1197.307 927.031 1197.307 927.031 1203.934 927.002 1203.991 926.998 1211.324 926.439 1218.29 924.292 1224.692 920.615 1225.362 920.229 1226.158 920.236 1226.819 920.634 1227.477 921.031 1227.87 921.737 1227.87 922.521 1227.87 922.521 1227.87 929.648 1227.87 929.648 1230.834 930.042 1233.131 932.65 1233.131 935.8 1233.131 938.951 1230.834 941.558 1227.87 941.953 1227.87 941.953 1227.87 949.08 1227.87 949.08 1227.87 949.865 1227.477 950.57 1226.819 950.966 1226.482 951.169 1226.109 951.271 1225.737 951.271 1225.379 951.271 1225.021 951.177 1224.692 950.988 1218.731 947.564 1212.284 945.467 1205.506 944.744 1205.506 944.744 1209.664 956.529 1209.664 956.529 1209.9 957.192 1209.805 957.934 1209.411 958.513 1209.015 959.093 1208.369 959.439 1207.68 959.439 1207.68 959.439 1202.821 959.439 1202.821 959.439 Z M1202.821 957.298 C1202.821 957.298 1207.68 957.298 1207.68 957.298 1207.688 957.298 1207.694 957.3 1207.703 957.287 1207.713 957.274 1207.71 957.266 1207.707 957.257 L1203.229 944.572 1198.311 944.572 C1198.311 944.572 1202.793 957.281 1202.793 957.281 1202.797 957.291 1202.808 957.298 1202.821 957.298 Z M1225.731 949.128 C1225.74 949.13 1225.751 949.129 1225.764 949.121 1225.786 949.107 1225.786 949.095 1225.786 949.08 L1225.786 922.521 C1225.786 922.506 1225.786 922.493 1225.764 922.48 1225.738 922.464 1225.721 922.475 1225.707 922.482 1219.305 926.16 1212.364 928.366 1205.061 929.052 1205.061 929.052 1205.061 942.55 1205.061 942.55 1212.363 943.235 1219.304 945.441 1225.707 949.119 1225.714 949.122 1225.722 949.127 1225.731 949.128 Z M1202.977 942.433 L1202.977 929.171 C1202.977 929.171 1197.307 929.171 1197.307 929.171 1196.661 929.171 1196.135 929.711 1196.135 930.375 1196.135 930.375 1196.135 941.23 1196.135 941.23 1196.135 941.719 1196.422 942.14 1196.83 942.328 1196.981 942.394 1197.024 942.405 1197.233 942.429 1197.258 942.431 1202.977 942.433 1202.977 942.433 Z M1227.87 939.787 C1229.68 939.414 1231.049 937.769 1231.049 935.8 1231.049 933.832 1229.68 932.187 1227.87 931.814 1227.87 931.814 1227.87 939.787 1227.87 939.787 Z M1192.715 939.484 C1192.715 939.484 1194.053 939.484 1194.053 939.484 L1194.053 932.121 C1194.053 932.121 1192.715 932.121 1192.715 932.121 1192.375 932.121 1192.098 932.406 1192.098 932.755 1192.098 932.755 1192.098 938.849 1192.098 938.849 1192.098 939.199 1192.375 939.484 1192.715 939.484 Z" fill="#a3bbc8" fill-opacity="1" stroke="none"/>
</svg>
