<?xml version="1.0" encoding="UTF-8"?>
<svg width="14px" height="14px" viewBox="741 2884 14 14" xmlns="http://www.w3.org/2000/svg" xmlns:xlink="http://www.w3.org/1999/xlink" version="1.1">
 <!-- Generated by Pixelmator Pro 2.2 -->
 <path id="Shape-1" d="M741.549 2897.166 C741.313 2897.166 741.121 2896.981 741.121 2896.754 741.121 2893.777 743.188 2891.257 746.014 2890.447 745.002 2889.826 744.33 2888.738 744.33 2887.5 744.33 2885.572 745.96 2884.002 747.965 2884.002 749.97 2884.002 751.602 2885.572 751.602 2887.5 751.602 2888.737 750.93 2889.826 749.918 2890.447 752.743 2891.258 754.809 2893.777 754.809 2896.754 754.809 2896.981 754.617 2897.166 754.381 2897.166 754.381 2897.166 741.549 2897.166 741.549 2897.166 Z M741.993 2896.344 C741.993 2896.344 753.94 2896.344 753.94 2896.344 753.72 2893.36 751.123 2890.996 747.965 2890.996 744.807 2890.996 742.213 2893.36 741.993 2896.344 Z M747.965 2890.174 C749.498 2890.174 750.746 2888.974 750.746 2887.5 750.746 2886.026 749.498 2884.826 747.965 2884.826 746.432 2884.826 745.186 2886.026 745.186 2887.5 745.186 2888.974 746.432 2890.174 747.965 2890.174 Z" fill="#436372" fill-opacity="1" stroke="none"/>
</svg>
