<?xml version="1.0" encoding="utf-8"?><svg viewBox="0 0 128 128" xmlns="http://www.w3.org/2000/svg" xmlns:xlink="http://www.w3.org/1999/xlink"><style>:root>svg{display:none}:root>svg:target{display:block}</style><svg viewBox="534 648 23 10" id="arrow" xmlns="http://www.w3.org/2000/svg"><path d="M535.296 654.472h-.008 16.956l-.1 2.857a.286.286 0 00-.084.205c0 .077.029.151.084.205l.172.172a.285.285 0 00.407.002l4.193-4.211a.292.292 0 000-.409l-4.193-4.213a.287.287 0 00-.407 0l-.172.173a.287.287 0 000 .405l.113 2.864h-16.965a.298.298 0 00-.292.295v1.371c0 .159.137.284.296.284z"/></svg><svg viewBox="602 2610 23 10" id="arrow-2" xmlns="http://www.w3.org/2000/svg"><path d="M603.296 2616.472l-.008-.002h16.956l-.1 2.859a.287.287 0 00-.084.205c0 .077.029.15.084.204l.172.174a.287.287 0 00.408 0l4.192-4.212a.287.287 0 000-.408l-4.192-4.213a.293.293 0 00-.408 0l-.172.174a.282.282 0 00-.084.204.27.27 0 00.084.199l.113 2.865h-16.965a.298.298 0 00-.292.296v1.37c0 .159.137.285.296.285z"/></svg><svg viewBox="512 1138 23 10" id="arrow-3" xmlns="http://www.w3.org/2000/svg"><path d="M513.296 1144.473l-.008-.002h16.956l-.1 2.858a.289.289 0 00-.084.205c0 .078.029.15.084.205l.172.173a.283.283 0 00.204.084.288.288 0 00.204-.083l4.192-4.212a.287.287 0 000-.408l-4.192-4.213a.288.288 0 00-.204-.083.287.287 0 00-.204.083l-.172.174a.28.28 0 00-.084.204.27.27 0 00.084.199l.113 2.865h-16.965a.298.298 0 00-.292.296v1.37c0 .159.137.285.296.285z"/></svg><svg viewBox="0 0 12 13" id="calendar" xmlns="http://www.w3.org/2000/svg"><path d="M3.43 0c.472 0 .855.363.855.813v.812h3.43V.812c0-.449.383-.812.855-.812.477 0 .86.363.86.813v.812h1.285c.71 0 1.285.547 1.285 1.219v1.219H0v-1.22c0-.671.574-1.218 1.285-1.218H2.57V.812c0-.449.383-.812.86-.812zM0 4.875h12v6.906c0 .672-.574 1.219-1.285 1.219h-9.43C.575 13 0 12.453 0 11.781zm1.715 2.031v.813c0 .222.191.406.43.406H3c.234 0 .43-.184.43-.406v-.813c0-.222-.196-.406-.43-.406h-.855a.419.419 0 00-.43.406zm3.43 0v.813c0 .222.19.406.425.406h.86a.418.418 0 00.425-.406v-.813A.418.418 0 006.43 6.5h-.86a.418.418 0 00-.425.406zM9 6.5c-.234 0-.43.184-.43.406v.813c0 .222.196.406.43.406h.855c.239 0 .43-.184.43-.406v-.813a.419.419 0 00-.43-.406zm-7.285 3.656v.813c0 .222.191.406.43.406H3c.234 0 .43-.184.43-.406v-.813c0-.222-.196-.406-.43-.406h-.855a.419.419 0 00-.43.406zM5.57 9.75a.418.418 0 00-.425.406v.813c0 .222.19.406.425.406h.86a.418.418 0 00.425-.406v-.813a.418.418 0 00-.425-.406zm3 .406v.813c0 .222.196.406.43.406h.855c.239 0 .43-.184.43-.406v-.813a.419.419 0 00-.43-.406H9c-.234 0-.43.184-.43.406zm0 0"/></svg><svg viewBox="770 1281 64 40" id="car" xmlns="http://www.w3.org/2000/svg"><path d="M788.103 1321c-3.499 0-6.345-2.812-6.345-6.27l.002-.066h-5.414c-1.142 0-2.071-.919-2.071-2.047v-2.178h-3.273a.996.996 0 01-1.002-.99.996.996 0 011.002-.991h9.621a.997.997 0 011.002.991c0 .546-.449.99-1.002.99h-4.344v2.178c0 .036.03.066.067.066h5.761a6.35 6.35 0 015.996-4.225 6.352 6.352 0 015.999 4.225h20.791v-7.459c0-.547.448-.99 1.001-.99a.996.996 0 011.002.99v7.459h.483a6.351 6.351 0 015.998-4.225 6.353 6.353 0 015.998 4.225h2.621v-4.355h-1.137c-1.731 0-3.138-1.393-3.138-3.104v-2.111c0-.547.448-.99 1.002-.99h3.115a3.275 3.275 0 00-3.113-2.245h-11.827V1301c0 .546-.45.99-1.004.99a.996.996 0 01-1.001-.99v-17.954a.067.067 0 00-.067-.066h-38.48a.067.067 0 00-.067.066V1301c0 .546-.448.99-1.002.99a.997.997 0 01-1.002-.99v-17.954c0-1.128.929-2.046 2.071-2.046h38.48c1.142 0 2.072.918 2.072 2.046v2.178h7.549c2.321 0 4.209 1.865 4.209 4.158v1.057c0 .476-.34.874-.793.969l1.656 6.549c2.533.38 4.481 2.548 4.481 5.156v10.56a.997.997 0 01-1.002.991h-3.275l.002.066c0 3.458-2.849 6.27-6.348 6.27-3.499 0-6.346-2.812-6.346-6.27l.002-.066h-22.584l.002.066c0 3.458-2.848 6.27-6.348 6.27zm0-1.981c2.395 0 4.344-1.923 4.344-4.289 0-2.366-1.949-4.291-4.344-4.291-2.394 0-4.341 1.925-4.341 4.291 0 2.366 1.947 4.289 4.341 4.289zm35.274 0c2.394 0 4.344-1.923 4.344-4.289 0-2.366-1.95-4.291-4.344-4.291s-4.342 1.925-4.342 4.291c0 2.366 1.948 4.289 4.342 4.289zm-35.274-2.244c-1.142 0-2.07-.917-2.07-2.045s.928-2.047 2.07-2.047 2.073.919 2.073 2.047c0 1.128-.931 2.045-2.073 2.045zm35.274 0c-1.142 0-2.07-.917-2.07-2.045s.928-2.047 2.07-2.047 2.072.919 2.072 2.047c0 1.128-.93 2.045-2.072 2.045zm-26.721-6.336a.997.997 0 01-1.002-.99.997.997 0 011.002-.991h14.963a.998.998 0 011.004.991c0 .546-.451.99-1.004.99h-14.963zm34.203-4.092h1.137v-2.246h-2.271v1.123a1.13 1.13 0 001.134 1.123zm-57.718-.133a.996.996 0 01-1.002-.99c0-.547.448-.99 1.002-.99h12.826a.996.996 0 011.002.99c0 .547-.449.99-1.002.99h-12.826zm21.377-4.224c-.257 0-.514-.096-.709-.289l-5.344-5.282a.98.98 0 010-1.4 1.013 1.013 0 011.418 0l4.635 4.58 8.912-8.805a1.01 1.01 0 011.416 0 .983.983 0 010 1.401l-9.619 9.506a1.008 1.008 0 01-.709.289zm22.38-4.092h10.541l-1.636-6.469h-8.905v6.469zm0-8.449h9.752v-.067c0-1.201-.987-2.177-2.203-2.177h-7.549v2.244z"/></svg><svg viewBox="1715 68 20 18" id="cart" xmlns="http://www.w3.org/2000/svg"><path d="M1721.527 85.978a2.069 2.069 0 01-1.463-.606 2.07 2.07 0 01-.451-2.262 2.066 2.066 0 011.914-1.279h.006c.551 0 1.07.214 1.461.604.392.393.607.911.607 1.464a2.064 2.064 0 01-1.275 1.918c-.259.109-.53.161-.799.161zm8.391 0a2.062 2.062 0 01-1.461-.606 2.067 2.067 0 01-.451-2.262 2.06 2.06 0 011.912-1.279c.546-.04 1.081.218 1.469.604.392.392.607.911.607 1.464a2.065 2.065 0 01-1.275 1.918c-.26.109-.532.16-.801.161zm-8.434-1.186a.89.89 0 00.672-1.52.883.883 0 00-.623-.257h-.004a.887.887 0 00-.629 1.517c.16.159.369.249.584.26zm8.393 0a.885.885 0 00.931-.891.89.89 0 00-.259-.629.897.897 0 00-.625-.257h-.002c-.331.032-.685.215-.823.548a.885.885 0 00.194.969c.16.16.368.249.584.26zm-11.233-1.613a.592.592 0 01-.535-.844c.579-1.239 1.627-1.974 3.053-2.15l-1.055-5.391a.594.594 0 011.164-.229l1.09 5.579h9.424l1.807-6.772h-13.303a4.353 4.353 0 01-4.283-3.691.592.592 0 01.5-.674.59.59 0 01.672.498 3.164 3.164 0 003.115 2.682h14.07a.591.591 0 01.572.746l-2.123 7.955a.593.593 0 01-.572.439h-10.355a.04.04 0 00-.022 0c-1.329.001-2.207.494-2.681 1.51a.596.596 0 01-.538.342z"/></svg><svg viewBox="1166 2955 18 15" id="comment" xmlns="http://www.w3.org/2000/svg"><path d="M1169 2970a.446.446 0 01-.164-.031.412.412 0 01-.266-.379v-2.072h-1.285c-.709 0-1.285-.553-1.285-1.233v-9.861c0-.68.576-1.233 1.285-1.233h15.43c.709 0 1.285.553 1.285 1.233v9.861c0 .68-.576 1.233-1.285 1.233h-10.949l-2.463 2.361a.436.436 0 01-.303.121zm.428-1.402l1.857-1.782a.44.44 0 01.303-.121h11.127a.42.42 0 00.428-.41v-9.861a.42.42 0 00-.428-.41h-15.43a.42.42 0 00-.428.41v9.861c0 .227.192.41.428.41H1169a.42.42 0 01.428.412v1.491zm1.986-6.627a.63.63 0 01-.643-.616c0-.34.288-.617.643-.617.355 0 .643.277.643.617a.63.63 0 01-.643.616zm3.586 0a.63.63 0 01-.643-.616c0-.34.288-.617.643-.617.355 0 .643.277.643.617a.63.63 0 01-.643.616zm3.344 0c-.355 0-.645-.275-.645-.616 0-.34.29-.617.645-.617a.63.63 0 01.642.617.629.629 0 01-.642.616z"/></svg><svg viewBox="1810 63 22 21" id="dots" xmlns="http://www.w3.org/2000/svg"><path d="M1813.146 83.618a2.143 2.143 0 01-2.146-2.145c0-1.187.96-2.146 2.146-2.146 1.187 0 2.145.959 2.145 2.146a2.142 2.142 0 01-2.145 2.145zm7.868 0a2.142 2.142 0 01-2.145-2.145c0-1.187.958-2.146 2.145-2.146 1.186 0 2.146.959 2.146 2.146 0 1.187-.96 2.145-2.146 2.145zm7.869 0a2.145 2.145 0 110-4.291c1.186 0 2.146.959 2.146 2.146 0 1.187-.96 2.145-2.146 2.145zm-15.737-7.868a2.146 2.146 0 110-4.292 2.146 2.146 0 010 4.292zm7.868 0a2.145 2.145 0 01-2.145-2.148c0-1.186.958-2.144 2.145-2.144a2.146 2.146 0 010 4.292zm7.869 0a2.146 2.146 0 11-.001-4.293 2.146 2.146 0 01.001 4.293zm-15.737-7.871a2.143 2.143 0 110-4.289c1.187 0 2.145.958 2.145 2.145a2.142 2.142 0 01-2.145 2.144zm7.868 0a2.142 2.142 0 01-2.145-2.144c0-1.187.958-2.145 2.145-2.145a2.143 2.143 0 110 4.289zm7.869 0a2.143 2.143 0 110-4.289 2.143 2.143 0 110 4.289z"/></svg><svg viewBox="222 1010 53 55" id="features-1" xmlns="http://www.w3.org/2000/svg"><path d="M263.984 1044.594c5.411 0 9.797 4.393 9.797 9.812s-4.386 9.813-9.797 9.813c-5.41 0-9.797-4.394-9.797-9.813 0-5.419 4.387-9.812 9.797-9.812z"/><path d="M247.464 1060.206c-5.361 0-10.454-1.697-14.729-4.906a.938.938 0 011.125-1.5 22.495 22.495 0 0013.604 4.531c12.506 0 22.679-10.175 22.679-22.682 0-4.253-1.184-8.399-3.423-11.988a.938.938 0 011.591-.992 24.489 24.489 0 013.707 12.98c0 13.54-11.014 24.557-24.554 24.557zm-16.539-6.758a.935.935 0 01-.657-.267c-4.747-4.657-7.361-10.883-7.361-17.532 0-13.54 11.016-24.554 24.557-24.554 3.484 0 6.853.714 10.01 2.125a24.398 24.398 0 016.343 4.111l-.041-1.748a.937.937 0 011.875-.045l.096 4.061a.938.938 0 01-.914.959l-4.061.097h-.023a.939.939 0 01-.022-1.875l1.842-.043a22.759 22.759 0 00-15.105-5.767c-12.506 0-22.682 10.175-22.682 22.681 0 6.14 2.414 11.89 6.799 16.192a.936.936 0 01-.656 1.605zm4.543-6.965a.938.938 0 01-.662-1.601l6.343-6.342a10.835 10.835 0 003.196-7.713 3.977 3.977 0 00-3.971-3.971 3.975 3.975 0 00-3.969 3.971.937.937 0 11-1.875 0 5.852 5.852 0 015.844-5.846 5.854 5.854 0 015.846 5.846c0 3.415-1.33 6.625-3.745 9.039l-4.744 4.742h7.551a.938.938 0 010 1.875h-9.814zm21.314 0a.937.937 0 01-.937-.937v-5.5h-6.938a.94.94 0 01-.805-1.418l7.875-13.19a.94.94 0 011.743.473v7.617a.938.938 0 01-1.875 0v-4.209l-5.286 8.852h5.286v-1.518a.937.937 0 111.875 0v1.518h2.601a.937.937 0 110 1.875h-2.601v5.5c0 .517-.42.937-.938.937z"/></svg><svg viewBox="803 1019 55 38" id="features-2" xmlns="http://www.w3.org/2000/svg"><path d="M823.367 1049.919a4.984 4.984 0 01-4.912-4.193h-2.418a.784.784 0 01-.785-.785v-23.588c0-.434.351-.785.785-.785h6.047a.785.785 0 010 1.572h-5.262v22.014h1.633a4.984 4.984 0 014.912-4.194 4.983 4.983 0 014.912 4.194h8.336v-1.125a.784.784 0 111.571 0v1.125h1.345a4.984 4.984 0 014.912-4.194 4.983 4.983 0 014.912 4.194h1.997v-13.299c0-3.591-2.92-6.514-6.508-6.514h-6.658v15.02a.786.786 0 01-1.571 0v-17.221h-11.39a.786.786 0 010-1.572H837.4c.434 0 .786.351.786.785v1.416h6.658c4.455 0 8.078 3.628 8.078 8.086v14.086a.785.785 0 01-.785.785h-2.783a4.983 4.983 0 01-4.911 4.193 4.984 4.984 0 01-4.912-4.193h-11.252a4.983 4.983 0 01-4.912 4.193zm0-1.572a3.408 3.408 0 003.404-3.406 3.409 3.409 0 00-3.404-3.406 3.407 3.407 0 000 6.812zm21.076 0a3.407 3.407 0 003.403-3.406 3.408 3.408 0 00-3.403-3.406 3.408 3.408 0 00-3.404 3.404v.002a3.41 3.41 0 003.404 3.406zm-21.076-1.381a2.027 2.027 0 01-2.025-2.025c0-1.118.909-2.027 2.025-2.027 1.117 0 2.026.909 2.026 2.027a2.028 2.028 0 01-2.026 2.025zm21.076 0a2.027 2.027 0 01-2.025-2.025c0-1.118.909-2.027 2.025-2.027 1.117 0 2.026.909 2.026 2.027a2.028 2.028 0 01-2.026 2.025zm-21.076-1.57a.456.456 0 000-.91.454.454 0 000 .91zm21.076 0a.455.455 0 10-.004-.91.455.455 0 00.004.91zm-39.847-1.195a.786.786 0 010-1.573h3.388a.787.787 0 010 1.573h-3.388zm6.006 0a.785.785 0 110-1.573h.644a.786.786 0 010 1.573h-.644zm38.394-3.612a.786.786 0 01-.787-.785v-1.992a.787.787 0 011.572 0v1.992a.784.784 0 01-.785.785zm-41.258-2.677a.785.785 0 010-1.573h5.602a.786.786 0 010 1.573h-5.602zm32.805-3.036a.786.786 0 01-.787-.785v-7.39c0-.434.353-.787.787-.787h4.301a4.944 4.944 0 014.937 4.941v3.236a.784.784 0 01-.785.785h-8.453zm.785-1.572h6.881v-2.449a3.37 3.37 0 00-3.365-3.369h-3.516v5.818zm-36.732-.109a.786.786 0 010-1.572h6.65a.786.786 0 010 1.572h-6.65zm2.093-6.289a.787.787 0 010-1.573h6.127a.786.786 0 010 1.573h-6.127z"/><path d="M847.75 1037.406c5.419 0 9.812 4.386 9.812 9.797 0 5.411-4.393 9.797-9.812 9.797s-9.813-4.386-9.813-9.797c0-5.411 4.394-9.797 9.813-9.797z"/></svg><svg viewBox="1398 1011 55 53" id="features-3" xmlns="http://www.w3.org/2000/svg"><path d="M1402.092 1055.254a3.84 3.84 0 01-3.834-3.837v-23.62a3.841 3.841 0 013.834-3.839h25.129a.835.835 0 110 1.673h-25.129a2.167 2.167 0 00-2.162 2.166v2.883h9.867a.838.838 0 010 1.674h-9.867v5.471h27.291a.836.836 0 110 1.672h-27.291v11.92c0 1.193.97 2.166 2.162 2.166h39.334a2.168 2.168 0 002.164-2.166v-8.266c0-.462.373-.836.834-.836.462 0 .838.374.838.836v8.266a3.841 3.841 0 01-3.836 3.837h-39.334zm1.619-7.353a.838.838 0 010-1.674h8.184a.838.838 0 010 1.674h-8.184zm0-3.99a.838.838 0 010-1.676h14.272c.461 0 .834.376.834.838a.836.836 0 01-.834.838h-14.272zm28.723-3.108a3.046 3.046 0 01-3.041-3.045v-10.746a3.047 3.047 0 012.393-2.974v-6.018c0-3.64 2.959-6.602 6.595-6.602 3.637 0 6.596 2.962 6.596 6.602v6.018a3.047 3.047 0 012.393 2.974v4.772a.838.838 0 01-.836.838.837.837 0 01-.836-.838v-4.772c0-.755-.614-1.371-1.37-1.371h-11.894c-.755 0-1.369.616-1.369 1.371v10.746a1.37 1.37 0 001.369 1.371h11.894c.756 0 1.37-.615 1.37-1.371v-3.185a.836.836 0 111.672 0v3.185a3.047 3.047 0 01-3.042 3.045h-11.894zm5.947-3.564a.836.836 0 01-.836-.836v-2.039a3.095 3.095 0 01.836-6.074 3.095 3.095 0 01.836 6.074v2.039a.836.836 0 01-.836.836zm0-4.434c.783 0 1.422-.638 1.422-1.422 0-.783-.639-1.422-1.422-1.422a1.423 1.423 0 000 2.844zm-25.377-.449a.838.838 0 010-1.676h14.217a.837.837 0 010 1.676h-14.217zm20.453-8.389h9.848v-5.947a4.931 4.931 0 00-4.924-4.928 4.931 4.931 0 00-4.924 4.928v5.947z"/><path d="M1442 1044.063c5.419 0 9.813 4.385 9.813 9.796s-4.394 9.797-9.813 9.797c-5.419 0-9.812-4.386-9.812-9.797 0-5.411 4.393-9.796 9.812-9.796z"/></svg><svg viewBox="799 1562 24 21" id="forma1" xmlns="http://www.w3.org/2000/svg"><path d="M806.484 1582.999a1.85 1.85 0 01-1.846-1.848 1.85 1.85 0 011.846-1.848 1.847 1.847 0 010 3.696zm11.529 0c-.963 0-1.762-.762-1.83-1.727a1.85 1.85 0 011.709-1.969 1.849 1.849 0 011.967 1.711c.027.502-.122.98-.447 1.346-.326.38-.773.598-1.262.639h-.137zm-10.755-5.735a.813.813 0 01-.787-.597l-3.325-12.038h-2.332a.817.817 0 01-.814-.814c0-.449.367-.816.814-.816h2.944c.366 0 .692.244.787.597l3.322 12.037h9.063l3.009-6.927h-10.037a.815.815 0 010-1.631h11.285a.81.81 0 01.68.365.826.826 0 01.066.775l-3.716 8.561a.815.815 0 01-.746.488h-10.213z"/></svg><svg viewBox="739 1562 21 21" id="forma2" xmlns="http://www.w3.org/2000/svg"><path d="M758.125 1582.998c-.48 0-.96-.183-1.326-.549l-4.588-4.588a8.808 8.808 0 002.65-2.652l4.59 4.59a1.872 1.872 0 01-1.326 3.199zm-10.625-5a7.5 7.5 0 110-15 7.5 7.5 0 010 15zm0-1.875a5.63 5.63 0 005.625-5.625 5.63 5.63 0 00-5.625-5.625 5.63 5.63 0 00-5.625 5.625 5.63 5.63 0 005.625 5.625zm-4.375-5.625a4.38 4.38 0 014.375-4.375v1.252a3.127 3.127 0 00-3.125 3.123h-1.25z"/></svg><svg viewBox="860 1564 23 18" id="forma3" xmlns="http://www.w3.org/2000/svg"><path d="M882.99 1569.82a6.212 6.212 0 00-1.849-4.1c-1.125-1.11-2.596-1.721-4.139-1.721-2.311 0-3.948 1.785-4.827 2.745l-.156.169a6.993 6.993 0 01-.083-.094c-.804-.916-2.476-2.82-4.938-2.82-1.543 0-3.013.611-4.139 1.721a6.212 6.212 0 00-1.849 4.1c-.082 1.541.31 2.88 1.271 4.338.861 1.308 3.104 3.374 4.763 4.748 1.705 1.411 3.95 3.093 4.965 3.093 1.032 0 3.269-1.68 4.965-3.087 1.646-1.367 3.876-3.433 4.746-4.754.646-.984 1.375-2.366 1.27-4.338zm-2.376 3.61c-.632.961-2.412 2.736-4.431 4.418-2.406 2.004-3.831 2.795-4.172 2.826-.342-.035-1.77-.833-4.188-2.843-2.03-1.686-3.813-3.454-4.437-4.402-.795-1.206-1.12-2.297-1.054-3.538.135-2.519 2.228-4.569 4.666-4.569 1.863 0 3.216 1.542 3.943 2.37.428.488.663.755 1.059.755.409 0 .672-.286 1.151-.809.794-.866 2.122-2.316 3.851-2.316 2.438 0 4.531 2.05 4.666 4.569.067 1.255-.248 2.313-1.054 3.539z"/></svg><svg viewBox="1045 1945 24 16" id="google+" xmlns="http://www.w3.org/2000/svg"><path d="M1052.751 1960.35c-1.409-.083-2.689-.525-3.823-1.361-1.462-1.077-2.383-2.514-2.77-4.288a6.498 6.498 0 01-.138-1.934 7.048 7.048 0 011.62-4.102 7.123 7.123 0 013.865-2.458 5.826 5.826 0 011.189-.186c.228-.008.456-.021.684-.021a6.743 6.743 0 013.398.932c.701.401 1.098.808 1.269.932-.716.705-1.404 1.395-2.107 2.086-.522-.45-1.099-.863-2.099-1.016a4.423 4.423 0 00-.613-.044c-2.007 0-3.688 1.451-4.136 3.353a3.945 3.945 0 00-.1 1.298c.153 1.768 1.337 3.218 2.935 3.736.407.128.829.189 1.254.189.099 0 .198-.003.298-.009.753-.049 1.459-.249 2.098-.671 1.075-.732 1.423-1.878 1.425-2.161h-3.846l.021-2.77.007-.117h6.754c.364 2.107.036 4.323-1.275 6.056-.907 1.195-2.114 1.948-3.554 2.321a7.722 7.722 0 01-2.356.235zm13.331-4.054h-1.892v-.069l.019-2.431h-2.507l.001-.076.014-1.816v-.069h2.507l.018-2.438.001-.069h1.961l-.001.069-.018 2.438h2.506v.069l-.014 1.816-.001.076h-2.506l-.019 2.431v.069z"/></svg><svg viewBox="1639 70 19 17" id="heart" xmlns="http://www.w3.org/2000/svg"><path d="M1648.913 86.245a.698.698 0 01-.28-.057c-.353-.149-8.65-3.75-8.65-10.759.091-2.65 2.207-4.708 4.818-4.708 1.743 0 3.266.918 4.112 2.31a4.796 4.796 0 014.112-2.31c2.61 0 4.725 2.058 4.817 4.684 0 7.033-8.297 10.634-8.649 10.783a.701.701 0 01-.28.057zm-4.112-14.139c-1.847 0-3.343 1.47-3.408 3.347 0 5.406 6.125 8.662 7.52 9.334 1.395-.672 7.52-3.93 7.52-9.358-.065-1.853-1.563-3.323-3.408-3.323s-3.342 1.47-3.408 3.347a.7.7 0 01-.704.669.7.7 0 01-.705-.669c-.064-1.877-1.561-3.347-3.407-3.347z"/></svg><svg viewBox="1000 1944 19 19" id="inst" xmlns="http://www.w3.org/2000/svg"><path d="M1009.367 1962.193c-2.047 0-4.092-.075-4.779-.254-1.951-.504-3.114-1.775-3.424-3.75-.231-1.45-.255-8.19.164-9.654.546-1.906 1.819-3.025 3.748-3.342.874-.143 2.582-.193 4.308-.193a86 86 0 014.2.097c1.18.063 2.261.441 3.138 1.284.836.801 1.265 1.802 1.373 2.935.128 1.353.211 7.747-.187 9.246-.533 1.961-1.813 3.121-3.797 3.44-.741.119-2.745.191-4.744.191zm.08-1.555c1.803 0 3.574-.055 4.24-.128 1.514-.166 2.515-1.099 2.754-2.604.247-1.512.247-7.029.106-8.445-.155-1.513-1.079-2.508-2.575-2.742-.741-.113-2.525-.163-4.3-.163-1.713 0-3.417.048-4.167.129-1.499.173-2.507 1.098-2.746 2.59-.247 1.581-.245 7.492-.06 8.68.191 1.236.89 2.084 2.123 2.43.668.187 2.665.253 4.625.253zm.115-2.628a4.365 4.365 0 01-4.371-4.413 4.442 4.442 0 014.445-4.406 4.37 4.37 0 014.373 4.412 4.452 4.452 0 01-4.447 4.407zm-.015-1.561h.025a2.881 2.881 0 002.877-2.824 2.822 2.822 0 00-2.803-2.879h-.025a2.88 2.88 0 00-2.877 2.824 2.826 2.826 0 002.803 2.879zm4.662-6.395a1.027 1.027 0 01-1.022-1.035 1.035 1.035 0 011.031-1.029h.014c.567 0 1.024.462 1.02 1.035a1.043 1.043 0 01-1.043 1.029z"/></svg><svg viewBox="1166 2884 18 13" id="mail" xmlns="http://www.w3.org/2000/svg"><path d="M1167.285 2896.994c-.354 0-.675-.139-.908-.363a1.213 1.213 0 01-.377-.875v-9.899a1.21 1.21 0 01.453-.939c.225-.185.515-.297.832-.297h15.43a1.304 1.304 0 01.865.326c.257.226.42.549.42.91v9.899c0 .341-.144.65-.377.875a1.307 1.307 0 01-.908.363h-15.43zm.176-.824h15.078l-6.076-5.846-.727.49c-.22.149-.478.223-.736.223s-.518-.074-.738-.223l-.727-.488-6.074 5.844zm-.604-.584l5.965-5.741-5.963-4.017-.002.029v9.729zm16.286 0v-9.729l-.002-.029-5.963 4.016 5.965 5.742zm-8.143-5.373a.437.437 0 00.246-.075l6.967-4.693h-14.426l6.967 4.693c.073.05.16.075.246.075z"/></svg><svg viewBox="941 616 38 35" id="mail-2" xmlns="http://www.w3.org/2000/svg"><path d="M942.976 650.918a.96.96 0 01-.67-.272.93.93 0 01-.279-.658L942 629.785v-.016a.93.93 0 01.41-.754l5.32-3.617v-3.838c0-.513.426-.931.95-.931h6.066l5.217-3.545a.96.96 0 011.08 0l5.183 3.545h6.094a.94.94 0 01.947.931v3.883l5.297 3.621c.189.13.317.314.373.518a.515.515 0 01.034.185l.027 20.17a.94.94 0 01-.945.934l-35.077.047zm2.772-1.867l29.478-.041-14.713-11.225-14.765 11.266zm-1.828-.965l11.443-8.729-11.467-7.795.024 16.524zm33.181-.004l-.023-16.565-11.438 7.821 11.461 8.744zm-20.168-9.924l3-2.289a.96.96 0 011.149-.008l.012.008 2.978 2.273 7.301-4.992v-10.658h-21.746v10.697l7.306 4.969zm-2.847-5.227a.94.94 0 01-.949-.931c0-.514.425-.934.949-.934h12.828c.523 0 .947.42.947.934a.94.94 0 01-.947.931h-12.828zm-6.356-1.029v-4.24l-3.117 2.121 3.117 2.119zm25.537-.049l3.028-2.07-3.028-2.07v4.14zm-19.181-3.767a.941.941 0 01-.949-.932c0-.515.425-.934.949-.934h12.828c.523 0 .947.419.947.934a.94.94 0 01-.947.932h-12.828zm3.994-7.457h4.828l-2.408-1.645-2.42 1.645z"/></svg><svg viewBox="544 611 31 45" id="map" xmlns="http://www.w3.org/2000/svg"><path d="M559.5 656c-.309 0-.616-.064-.903-.191l-6.584-2.916-5.673 2.509a1.654 1.654 0 01-1.866-.355 1.635 1.635 0 01-.312-1.863l4.994-10.516a1.108 1.108 0 011.986-.022c.166.332.149.707-.013 1.01l-4.344 9.145 4.32-1.914a2.23 2.23 0 011.807 0l6.582 2.916h.012l6.584-2.916a2.223 2.223 0 011.804 0l4.321 1.914-4.342-9.147a1.091 1.091 0 01.174-1.275 1.107 1.107 0 011.796.289l4.995 10.518a1.633 1.633 0 01-.313 1.861 1.65 1.65 0 01-1.863.355l-5.664-2.509-6.596 2.916a2.231 2.231 0 01-.902.191zm0-6.18a3.294 3.294 0 01-2.85-1.611l-9.547-15.926-.035-.062a13.88 13.88 0 01-1.527-6.41c.022-3.643 1.464-7.084 4.06-9.69a13.907 13.907 0 019.701-4.121 13.897 13.897 0 019.998 4.002 13.757 13.757 0 014.159 9.893 13.69 13.69 0 01-1.528 6.326l-.035.062-9.547 15.926a3.291 3.291 0 01-2.849 1.611zm0-2.195c.19 0 .662-.054.955-.541l9.529-15.895a11.517 11.517 0 001.27-5.294c0-3.156-1.245-6.114-3.502-8.331a11.694 11.694 0 00-8.246-3.367h-.172c-6.351.087-11.548 5.303-11.586 11.625a11.523 11.523 0 001.267 5.367l9.53 15.895c.291.487.765.541.955.541zm0-16.703c-2.786 0-5.051-2.255-5.051-5.027 0-2.773 2.265-5.028 5.051-5.028 2.784 0 5.05 2.255 5.05 5.028 0 2.772-2.266 5.027-5.05 5.027zm0-2.195a2.84 2.84 0 002.843-2.832 2.84 2.84 0 00-2.843-2.832 2.841 2.841 0 00-2.844 2.832 2.841 2.841 0 002.844 2.832z"/></svg><svg viewBox="470 1273 64 57" id="monitor" xmlns="http://www.w3.org/2000/svg"><path d="M490.547 1330a1.072 1.072 0 110-2.143h3.633l.877-7h-21.692A3.365 3.365 0 01470 1317.5v-41.143a3.365 3.365 0 013.365-3.357h57.27a3.365 3.365 0 013.365 3.357v41.143a3.365 3.365 0 01-3.365 3.357h-21.692l.877 7h3.633a1.072 1.072 0 110 2.143h-22.906zm5.797-2.143h11.312l-.877-7h-9.558l-.877 7zm-22.979-9.143h57.27c.671 0 1.217-.545 1.217-1.214v-41.143c0-.67-.546-1.215-1.217-1.215h-57.27c-.671 0-1.217.545-1.217 1.215v41.143c0 .669.546 1.214 1.217 1.214zm2.291-3.572c-.593 0-1.074-.48-1.074-1.072v-35.428c0-.592.481-1.07 1.074-1.07h44.67a1.072 1.072 0 110 2.142h-43.598V1313h2.364a1.072 1.072 0 110 2.142h-3.436zm8.018 0a1.071 1.071 0 110-2.142h43.597v-33.286h-2.363a1.071 1.071 0 110-2.142h3.436c.593 0 1.074.478 1.074 1.07v35.428c0 .592-.481 1.072-1.074 1.072h-44.67zm11.836-4.57a1.075 1.075 0 01-1.075-1.072v-9.143a1.074 1.074 0 012.149 0v9.143c0 .591-.481 1.072-1.074 1.072zm12.98 0a1.074 1.074 0 01-1.074-1.072v-2.286a1.073 1.073 0 012.148 0v2.286c0 .591-.481 1.072-1.074 1.072zm12.983-.002a1.073 1.073 0 01-1.075-1.07v-16a1.075 1.075 0 012.149 0v16c0 .591-.481 1.07-1.074 1.07zm-38.946-1.141a3.365 3.365 0 01-3.363-3.359 3.363 3.363 0 014.902-2.983l8.407-8.14a3.329 3.329 0 01-.329-1.447 3.366 3.366 0 016.729 0c0 .184-.014.364-.043.541l7.348 3.88a3.352 3.352 0 012.312-.921c.503 0 .98.11 1.408.308l8.604-9.09a3.324 3.324 0 01-.395-1.576 3.365 3.365 0 016.729 0 3.364 3.364 0 01-4.772 3.049l-8.603 9.09c.252.47.394 1.006.394 1.576a3.365 3.365 0 01-6.728 0c0-.184.014-.364.043-.541l-7.348-3.883a3.35 3.35 0 01-3.851.551l-8.407 8.141c.211.438.329.927.329 1.445a3.368 3.368 0 01-3.366 3.359zm0-2.144c.671 0 1.217-.545 1.217-1.215s-.546-1.213-1.217-1.213-1.217.543-1.217 1.213.546 1.215 1.217 1.215zm25.963-5.713c.671 0 1.217-.546 1.217-1.215a1.217 1.217 0 00-2.434 0c0 .669.546 1.215 1.217 1.215zm-12.98-6.858c.671 0 1.217-.545 1.217-1.214a1.217 1.217 0 00-2.434 0c0 .669.546 1.214 1.217 1.214zm25.963-6.857a1.215 1.215 0 100-2.428c-.671 0-1.217.543-1.217 1.213s.546 1.215 1.217 1.215z"/></svg><svg viewBox="992 921 37 38" id="note" xmlns="http://www.w3.org/2000/svg"><path d="M993.976 958.96a1.986 1.986 0 01-1.974-1.992v-27.277c0-.242.096-.472.265-.643l7.475-7.543a.898.898 0 01.638-.267h19.092c1.087 0 1.973.894 1.973 1.992v2.873c0 .502-.405.91-.902.91a.907.907 0 01-.903-.91v-2.873a.169.169 0 00-.168-.17h-18.189v5.553c0 1.097-.885 1.99-1.973 1.99h-5.504v26.365c0 .094.077.172.17.172h25.496a.171.171 0 00.168-.172v-13.9c0-.503.404-.911.903-.911.497 0 .902.408.902.911v13.9a1.985 1.985 0 01-1.973 1.992h-25.496zm5.084-6.47a.906.906 0 01-.902-.911c0-.502.404-.91.902-.91h3.94l1.392-5.064a.914.914 0 01.233-.401l.013-.015h-5.578a.906.906 0 01-.902-.91c0-.503.404-.911.902-.911h7.383l5.432-5.48H999.06a.905.905 0 01-.902-.908c0-.503.404-.912.902-.912h14.619l8.43-8.502a3.036 3.036 0 014.318 0l1.061 1.07a3.1 3.1 0 010 4.355l-17.484 17.641a.914.914 0 01-.397.234l-5.695 1.594c-.029.008-.227.03-.227.03h-4.625zm5.922-2.217l2.652-.744-1.916-1.934-.736 2.678zm4.383-1.573l14.435-14.56-2.828-2.854-14.433 14.563 2.826 2.851zm15.711-15.847l1.137-1.149a1.268 1.268 0 000-1.781l-1.063-1.072a1.235 1.235 0 00-.883-.367c-.32 0-.639.121-.883.367l-1.136 1.148 2.828 2.854zm-29.992-4.071h4.226a.169.169 0 00.168-.169v-4.266l-4.394 4.435z"/></svg><svg viewBox="1341 611 38 45" id="num" xmlns="http://www.w3.org/2000/svg"><path d="M1360.5 655.917c-2.789 0-5.059-2.24-5.059-4.994 0-2.754 2.27-4.996 5.059-4.996 2.79 0 5.058 2.242 5.058 4.996 0 2.755-2.268 4.994-5.058 4.994zm0-1.949c1.701 0 3.084-1.366 3.084-3.045 0-1.679-1.383-3.045-3.084-3.045-1.7 0-3.086 1.366-3.086 3.045 0 1.679 1.386 3.045 3.086 3.045zm-13.442-9.387c-2.79 0-5.058-2.242-5.058-4.996 0-2.755 2.269-4.994 5.058-4.994 2.79 0 5.061 2.239 5.061 4.994 0 2.754-2.271 4.996-5.061 4.996zm13.442 0c-2.789 0-5.059-2.242-5.059-4.996 0-2.755 2.27-4.994 5.059-4.994 2.79 0 5.058 2.239 5.058 4.994 0 2.754-2.268 4.996-5.058 4.996zm13.441 0c-2.79 0-5.06-2.242-5.06-4.996 0-2.755 2.27-4.994 5.06-4.994 2.789 0 5.059 2.239 5.059 4.994 0 2.754-2.27 4.996-5.059 4.996zm-26.883-1.949c1.701 0 3.084-1.367 3.084-3.047 0-1.679-1.383-3.045-3.084-3.045s-3.084 1.366-3.084 3.045c0 1.68 1.383 3.047 3.084 3.047zm13.442 0c1.701 0 3.084-1.367 3.084-3.047 0-1.679-1.383-3.045-3.084-3.045-1.7 0-3.086 1.366-3.086 3.045 0 1.68 1.386 3.047 3.086 3.047zm13.441 0c1.7 0 3.084-1.367 3.084-3.047 0-1.679-1.384-3.045-3.084-3.045-1.701 0-3.084 1.366-3.084 3.045 0 1.68 1.383 3.047 3.084 3.047zm-26.883-9.387c-2.79 0-5.058-2.241-5.058-4.996 0-2.754 2.269-4.994 5.058-4.994 2.79 0 5.061 2.24 5.061 4.994 0 2.755-2.271 4.996-5.061 4.996zm13.442 0c-2.789 0-5.059-2.241-5.059-4.996 0-2.754 2.27-4.994 5.059-4.994 2.79 0 5.058 2.24 5.058 4.994 0 2.755-2.268 4.996-5.058 4.996zm13.441 0c-2.79 0-5.06-2.241-5.06-4.996 0-2.754 2.27-4.994 5.06-4.994 2.789 0 5.059 2.24 5.059 4.994 0 2.755-2.27 4.996-5.059 4.996zm-26.883-1.951c1.701 0 3.084-1.365 3.084-3.045 0-1.679-1.383-3.045-3.084-3.045s-3.084 1.366-3.084 3.045c0 1.68 1.383 3.045 3.084 3.045zm13.442 0c1.701 0 3.084-1.365 3.084-3.045 0-1.679-1.383-3.045-3.084-3.045-1.7 0-3.086 1.366-3.086 3.045 0 1.68 1.386 3.045 3.086 3.045zm13.441 0c1.7 0 3.084-1.365 3.084-3.045 0-1.679-1.384-3.045-3.084-3.045-1.701 0-3.084 1.366-3.084 3.045 0 1.68 1.383 3.045 3.084 3.045zm-26.883-9.385c-2.79 0-5.058-2.242-5.058-4.996 0-2.755 2.269-4.996 5.058-4.996 2.79 0 5.061 2.241 5.061 4.996 0 2.754-2.271 4.996-5.061 4.996zm13.442 0c-2.789 0-5.059-2.242-5.059-4.996 0-2.755 2.27-4.996 5.059-4.996 2.79 0 5.058 2.241 5.058 4.996 0 2.754-2.268 4.996-5.058 4.996zm13.441 0c-2.79 0-5.06-2.242-5.06-4.996 0-2.755 2.27-4.996 5.06-4.996 2.789 0 5.059 2.241 5.059 4.996 0 2.754-2.27 4.996-5.059 4.996zm-26.883-1.951c1.701 0 3.084-1.366 3.084-3.045 0-1.68-1.383-3.045-3.084-3.045s-3.084 1.365-3.084 3.045c0 1.679 1.383 3.045 3.084 3.045zm13.442 0c1.701 0 3.084-1.366 3.084-3.045 0-1.68-1.383-3.045-3.084-3.045-1.7 0-3.086 1.365-3.086 3.045 0 1.679 1.386 3.045 3.086 3.045zm13.441 0c1.7 0 3.084-1.366 3.084-3.045 0-1.68-1.384-3.045-3.084-3.045-1.701 0-3.084 1.365-3.084 3.045 0 1.679 1.383 3.045 3.084 3.045z"/></svg><svg viewBox="1078 1269 67 64" id="phone" xmlns="http://www.w3.org/2000/svg"><path d="M1122.778 1333c-2.5 0-5.42-.641-8.653-1.926-6.528-2.596-13.67-7.536-20.111-13.91-6.441-6.374-11.433-13.442-14.056-19.903-2.743-6.753-2.583-12.126.449-15.127l4.291-4.246a4.703 4.703 0 013.963-1.34 4.392 4.392 0 013.261 2.19l6.52 11.467a4.49 4.49 0 01-.75 5.4l-4.07 4.025a2.354 2.354 0 00-.241 3.073 73.864 73.864 0 007.078 8.082 74.165 74.165 0 008.166 7.004c.937.688 2.272.586 3.106-.239l4.068-4.027a4.609 4.609 0 015.457-.742l11.59 6.451a4.349 4.349 0 012.211 3.228c.2 1.443-.293 2.873-1.353 3.922l-4.293 4.246c-1.596 1.58-3.856 2.372-6.633 2.372zm-.047-2.159c2.207.005 3.972-.57 5.144-1.73l1.944-1.924-9.319-5.029a1.068 1.068 0 01-.433-1.457 1.091 1.091 0 011.473-.428l9.878 5.332.75-.742c.576-.57.846-1.339.739-2.11a2.22 2.22 0 00-1.125-1.65l-11.588-6.449a2.417 2.417 0 00-2.86.388l-1.935 1.916 1.902 1.028c.527.284.721.936.434 1.457a1.085 1.085 0 01-.953.558c-.176 0-.353-.041-.518-.13l-2.465-1.33-.533.527c-1.589 1.572-4.14 1.764-5.933.445a76.104 76.104 0 01-8.409-7.209 75.802 75.802 0 01-7.285-8.32c-1.333-1.775-1.139-4.299.449-5.871l.534-.53-5.387-9.771a1.067 1.067 0 01.432-1.457 1.09 1.09 0 011.472.428l5.082 9.218 1.936-1.916a2.35 2.35 0 00.392-2.828l-6.517-11.468a2.244 2.244 0 00-1.668-1.112 2.544 2.544 0 00-2.131.729l-.75.742 1.344 2.439a1.069 1.069 0 01-.434 1.457c-.165.09-.342.131-.518.131-.384 0-.756-.201-.953-.558l-1.039-1.885-1.943 1.922c-2.344 2.319-2.332 6.987.031 12.806 2.517 6.198 7.338 13.01 13.576 19.184 6.239 6.174 13.126 10.945 19.389 13.436 2.94 1.169 5.588 1.756 7.795 1.761zm10.768-13.877c-.285 0-.563-.113-.768-.316a1.064 1.064 0 01-.297-.969l1.156-5.726c.118-.582.69-.96 1.278-.844.587.117.969.682.851 1.264l-.484 2.394c4.845-4.549 7.596-10.832 7.596-17.494 0-13.303-10.939-24.125-24.381-24.125-7.923 0-15.38 3.831-19.948 10.25a1.092 1.092 0 01-1.511.262 1.067 1.067 0 01-.262-1.496c4.974-6.99 13.093-11.164 21.721-11.164 14.639 0 26.55 11.786 26.55 26.273 0 7.151-2.905 13.9-8.041 18.836l2.114-.418a1.085 1.085 0 011.277.842 1.074 1.074 0 01-.851 1.263l-5.788 1.147c-.07.014-.142.021-.212.021zm-25.467-2.763c-.184 0-.37-.047-.541-.145a1.068 1.068 0 01-.397-1.467l1.156-1.982c.3-.513.964-.691 1.483-.395.519.297.698.954.398 1.467l-1.158 1.985a1.088 1.088 0 01-.941.537zm20.838 0a1.09 1.09 0 01-.942-.537l-1.158-1.985c-.3-.513-.12-1.17.398-1.467a1.094 1.094 0 011.483.395l1.156 1.982a1.07 1.07 0 01-.396 1.469 1.082 1.082 0 01-.541.143zm-28.461-7.545c-.375 0-.741-.195-.942-.539a1.067 1.067 0 01.399-1.465l2.004-1.147a1.09 1.09 0 011.482.393c.3.513.122 1.17-.396 1.467l-2.006 1.146a1.085 1.085 0 01-.541.145zm36.084-.002c-.184 0-.37-.045-.541-.143l-2.006-1.146a1.068 1.068 0 01-.397-1.467c.3-.513.964-.69 1.483-.393l2.004 1.145c.519.297.698.953.398 1.467a1.088 1.088 0 01-.941.537zm-29.618-3.436a1.08 1.08 0 01-1.085-1.074c0-3.283 2.686-4.733 5.054-6.012 2.617-1.413 4.207-2.429 4.207-4.623 0-1.754-1.59-3.181-3.545-3.181-1.954 0-3.545 1.427-3.545 3.181a1.08 1.08 0 01-1.086 1.073c-.599 0-1.083-.48-1.083-1.073 0-2.938 2.563-5.328 5.714-5.328 3.152 0 5.715 2.39 5.715 5.328 0 3.627-2.96 5.226-5.338 6.51-1.926 1.04-3.262 1.821-3.734 3.051h7.986a1.08 1.08 0 011.086 1.074 1.08 1.08 0 01-1.086 1.074h-9.26zm20.834 0a1.079 1.079 0 01-1.084-1.074v-3.508h-7.017a1.09 1.09 0 01-.846-.402 1.066 1.066 0 01-.213-.904l2.315-10.309c.13-.579.709-.943 1.295-.814.585.128.954.702.824 1.281l-2.022 9.002h5.664v-9.237c0-.593.485-1.072 1.084-1.072.6 0 1.086.479 1.086 1.072v9.237h1.231c.599 0 1.084.479 1.084 1.072 0 .593-.485 1.074-1.084 1.074h-1.231v3.508a1.08 1.08 0 01-1.086 1.074zm9.26-6.871a1.079 1.079 0 01-1.084-1.074c0-.593.485-1.074 1.084-1.074h2.317c.599 0 1.084.481 1.084 1.074 0 .593-.485 1.074-1.084 1.074h-2.317zm-34.558-9.164c-.184 0-.37-.046-.541-.144l-2.004-1.145a1.069 1.069 0 01-.399-1.467c.3-.514.964-.689 1.483-.392l2.006 1.144c.518.297.696.954.396 1.467a1.086 1.086 0 01-.941.537zm32.08 0c-.375 0-.741-.192-.942-.537a1.069 1.069 0 01.397-1.467l2.006-1.144a1.09 1.09 0 011.482.392c.3.514.12 1.17-.398 1.467l-2.004 1.145a1.094 1.094 0 01-.541.144zm-25.299-6.707c-.375 0-.74-.193-.942-.537l-1.156-1.984a1.067 1.067 0 01.397-1.467 1.09 1.09 0 011.482.392l1.158 1.985c.3.513.121 1.17-.398 1.467a1.094 1.094 0 01-.541.144zm18.517 0c-.184 0-.37-.047-.541-.144a1.069 1.069 0 01-.398-1.467l1.158-1.985c.3-.513.964-.689 1.483-.392.519.296.696.953.396 1.467l-1.156 1.982a1.09 1.09 0 01-.942.539zm-9.259-2.457c-.6 0-1.084-.481-1.084-1.074v-2.289c0-.593.484-1.074 1.084-1.074.599 0 1.085.481 1.086 1.074v2.289a1.08 1.08 0 01-1.086 1.074z"/></svg><svg viewBox="0 0 128 128" id="play" xmlns="http://www.w3.org/2000/svg"><g clip-path="url(#aya)"><path d="M64.5 1C99.57 1 128 29.43 128 64.5S99.57 128 64.5 128 1 99.57 1 64.5 29.43 1 64.5 1z" fill-opacity=".4"/><path d="M64 15c27.062 0 49 21.938 49 49s-21.938 49-49 49-49-21.938-49-49 21.938-49 49-49z"/><path d="M74.684 65.74L58.64 75.536a3.187 3.187 0 01-1.663.461c-.479 0-.96-.105-1.399-.317-.972-.47-1.579-1.387-1.579-2.385V53.7c0-.999.607-1.917 1.579-2.387a3.244 3.244 0 013.062.144l16.044 9.798c.822.502 1.315 1.343 1.315 2.242 0 .9-.493 1.74-1.315 2.243z"/></g><defs><clipPath id="aya"><path d="M0 0h128v128H0z"/></clipPath></defs></svg><svg viewBox="896 3835 128 128" id="play-2" xmlns="http://www.w3.org/2000/svg"><path d="M960.5 3836c35.07 0 63.5 28.43 63.5 63.5s-28.43 63.5-63.5 63.5-63.5-28.43-63.5-63.5 28.43-63.5 63.5-63.5z"/><path d="M960 3850c27.062 0 49 21.938 49 49s-21.938 49-49 49-49-21.938-49-49 21.938-49 49-49z"/><path d="M970.684 3900.74l-16.044 9.796a3.186 3.186 0 01-1.663.461c-.479 0-.96-.105-1.399-.317-.972-.47-1.579-1.387-1.579-2.385V3888.7c0-.999.607-1.917 1.579-2.387a3.244 3.244 0 013.062.144l16.044 9.798c.822.502 1.315 1.343 1.315 2.242s-.493 1.74-1.315 2.243z"/></svg><svg viewBox="1387 919 43 42" id="reward" xmlns="http://www.w3.org/2000/svg"><path d="M1408.246 960.17c-4.6 0-8.342-3.802-8.342-8.475 0-1.313.296-2.558.824-3.67l-13.219-20.447a.917.917 0 01.116-1.139l6.318-6.418a.885.885 0 01.631-.265h27.346c.236 0 .463.095.63.265l6.319 6.418a.921.921 0 01.115 1.139l-13.219 20.447a8.533 8.533 0 01.824 3.67c0 4.673-3.744 8.475-8.343 8.475zm0-1.813c3.615 0 6.558-2.988 6.558-6.662 0-3.672-2.943-6.662-6.558-6.662-3.617 0-6.559 2.99-6.559 6.662 0 3.674 2.942 6.662 6.559 6.662zm.304-2.357a.903.903 0 01-.894-.908v-4.901h-.526a.898.898 0 01-.89-.906.9.9 0 01.89-.908h1.42a.9.9 0 01.891.908v5.807a.9.9 0 01-.891.908zm6.164-9.65l11.87-18.364h-6.338l-10.008 15.479a8.34 8.34 0 014.476 2.885zm-12.935-.002a8.345 8.345 0 014.476-2.883l-10.007-15.479h-6.34l11.871 18.362zm6.453-3.127h.027l9.85-15.235h-19.727l9.85 15.235zm-17.822-17.047h35.674l-4.536-4.606h-26.605l-4.533 4.606z"/></svg><svg viewBox="1381 1269 49 64" id="reward-2" xmlns="http://www.w3.org/2000/svg"><path d="M1394.412 1333a.996.996 0 01-.818-.432l-3.209-4.645-5.573.672a.993.993 0 01-.922-.404 1.018 1.018 0 01-.107-1.01l6.924-15.59-1.024-.252a3.398 3.398 0 01-2.504-2.527l-.593-2.475a1.422 1.422 0 00-.539-.812l-2.036-1.494a3.437 3.437 0 01-1.359-3.311l.393-2.512a1.433 1.433 0 00-.19-.957l-1.312-2.173a3.452 3.452 0 010-3.577l1.312-2.173c.173-.287.241-.628.19-.959l-.393-2.512a3.437 3.437 0 011.359-3.311l2.038-1.494c.269-.198.46-.486.539-.812l.591-2.475a3.404 3.404 0 012.506-2.527l2.45-.6c.323-.079.61-.271.806-.543l1.481-2.056a3.373 3.373 0 013.279-1.372l2.486.395c.329.052.666-.015.949-.189l2.155-1.327a3.362 3.362 0 013.541 0l2.154 1.327c.284.174.621.241.949.189l2.489-.395a3.374 3.374 0 013.279 1.374l1.48 2.054c.196.272.484.466.807.545l2.449.598a3.403 3.403 0 012.506 2.529l.592 2.473c.078.326.27.616.539.814l2.037 1.494a3.433 3.433 0 011.357 3.311l-.39 2.51c-.052.331.014.672.187.959l1.315 2.173a3.452 3.452 0 010 3.577l-1.315 2.173a1.425 1.425 0 00-.187.957l.39 2.514a3.43 3.43 0 01-1.359 3.309l-2.035 1.496a1.414 1.414 0 00-.539.812l-.594 2.473a3.402 3.402 0 01-2.506 2.529l-.984.241 6.928 15.599c.147.332.107.717-.106 1.01a.998.998 0 01-.924.404l-5.57-.672-3.211 4.645a.998.998 0 01-.912.428 1 1 0 01-.816-.592l-7.081-15.944-.929.571a3.37 3.37 0 01-3.541 0l-.897-.551-7.07 15.924a1.003 1.003 0 01-.912.596zm-.19-3.045l6.413-14.436a1.374 1.374 0 00-.448-.004l-2.488.395a3.376 3.376 0 01-.998.009l-3.309 7.452a.995.995 0 01-1.318.507 1.013 1.013 0 01-.504-1.332l3.322-7.478a3.463 3.463 0 01-.472-.529l-1.481-2.055a1.415 1.415 0 00-.304-.309l-6.309 14.207 4.416-.533a.994.994 0 01.937.424l2.543 3.682zm21.719 0l2.545-3.682a.996.996 0 01.938-.424l4.414.533-6.319-14.228c-.128.09-.242.2-.336.33l-1.48 2.055c-.133.183-.283.35-.443.502l3.334 7.505a1.012 1.012 0 01-.502 1.332 1 1 0 01-1.321-.507l-3.31-7.457a3.403 3.403 0 01-1.037-.004l-2.489-.395a1.381 1.381 0 00-.406-.002l6.412 14.442zm-10.879-14.436c.253 0 .505-.07.731-.209l2.154-1.326a3.38 3.38 0 012.299-.459l2.488.394a1.39 1.39 0 001.354-.566l1.48-2.055a3.405 3.405 0 011.951-1.318l2.45-.598c.513-.125.91-.526 1.035-1.045l.591-2.472c.19-.791.653-1.49 1.305-1.969l2.037-1.494c.429-.315.643-.839.561-1.367l-.391-2.512a3.461 3.461 0 01.455-2.32l1.315-2.176a1.425 1.425 0 000-1.477l-1.315-2.174a3.461 3.461 0 01-.455-2.32l.391-2.512a1.418 1.418 0 00-.561-1.367l-2.035-1.494a3.435 3.435 0 01-1.305-1.969l-.593-2.472a1.405 1.405 0 00-1.034-1.045l-2.451-.6a3.397 3.397 0 01-1.949-1.316l-1.482-2.055a1.394 1.394 0 00-1.354-.566l-2.488.394a3.37 3.37 0 01-2.299-.461l-2.154-1.326a1.388 1.388 0 00-1.461 0l-2.155 1.326a3.372 3.372 0 01-2.3.461l-2.487-.394a1.39 1.39 0 00-1.353.566l-1.483 2.055a3.399 3.399 0 01-1.949 1.316l-2.451.598a1.404 1.404 0 00-1.033 1.045l-.594 2.474a3.441 3.441 0 01-1.305 1.969l-2.035 1.494a1.42 1.42 0 00-.562 1.367l.392 2.512a3.462 3.462 0 01-.457 2.32l-1.312 2.174a1.425 1.425 0 000 1.477l1.312 2.174c.419.694.582 1.519.457 2.322l-.392 2.512c-.083.528.132 1.05.56 1.365l2.037 1.494a3.44 3.44 0 011.305 1.971l.592 2.472c.124.519.521.92 1.035 1.045l2.449.598a3.408 3.408 0 011.951 1.316l1.481 2.057c.311.432.83.65 1.353.566l2.489-.394a3.38 3.38 0 012.299.459l2.156 1.326c.225.139.477.209.73.209zm-.064-4.043a17.833 17.833 0 01-11.045-3.822 1.014 1.014 0 01-.176-1.414.992.992 0 011.402-.176c6.364 4.999 15.469 4.421 21.18-1.344a16.277 16.277 0 002.981-18.75 1.011 1.011 0 01.441-1.353.994.994 0 011.342.445 18.3 18.3 0 01-3.354 21.082 17.942 17.942 0 01-12.771 5.332zm-13.444-6.65a.996.996 0 01-.789-.389c-5.569-7.224-4.927-17.561 1.495-24.043 5.525-5.578 13.921-6.938 20.89-3.383.493.251.688.859.44 1.356a.992.992 0 01-1.34.445c-6.198-3.161-13.664-1.952-18.578 3.008-5.711 5.765-6.282 14.956-1.33 21.379a1.015 1.015 0 01-.176 1.414.988.988 0 01-.612.213zm7.344-.457c-.371 0-.739-.117-1.056-.35a1.81 1.81 0 01-.711-1.828l1.179-5.992-4.441-4.147a1.811 1.811 0 01-.49-1.898 1.788 1.788 0 011.502-1.246l6.007-.719 2.536-5.547a1.785 1.785 0 011.638-1.059c.713 0 1.341.406 1.639 1.059l2.533 5.545 6.008.721a1.792 1.792 0 011.504 1.246c.22.684.031 1.41-.492 1.898l-4.442 4.147 1.18 5.992a1.811 1.811 0 01-.709 1.828 1.773 1.773 0 01-1.941.115l-5.28-2.982-5.279 2.982a1.791 1.791 0 01-.885.235zm.274-2.2l5.402-3.052a.99.99 0 01.975 0l5.402 3.052-1.205-6.13a1.012 1.012 0 01.301-.936l4.545-4.244-6.149-.734a1.002 1.002 0 01-.789-.581l-2.592-5.673-2.593 5.673a1.004 1.004 0 01-.79.581l-6.148.734 4.545 4.244c.255.238.37.592.303.936l-1.207 6.13zm18.623-19.271a.99.99 0 01-.748-.34 16.542 16.542 0 00-1.42-1.433 1.013 1.013 0 01-.088-1.422.992.992 0 011.41-.088c.28.25.555.511.82.779.266.268.526.545.774.828a1.017 1.017 0 01-.088 1.424.989.989 0 01-.66.252z"/></svg><svg viewBox="1544 65 17 17" id="search" xmlns="http://www.w3.org/2000/svg"><path d="M1557.693 81.292c-.614.009-1.344-.228-2.104-.974l-2.058-2.35a6.273 6.273 0 01-2.547.539c-3.468 0-6.279-2.801-6.279-6.257 0-3.456 2.806-6.252 6.275-6.252 3.465 0 6.279 2.799 6.279 6.255 0 .93-.203 1.811-.568 2.604l2.336 2.037c1.703 1.746.745 3.266.293 3.717-.237.255-.837.67-1.627.681zm.002-1.255c.232-.012.475-.097.711-.297.209-.177.634-1.069-.227-1.873l-2.162-1.881a6.276 6.276 0 01-1.363 1.34l1.871 2.187c.201.223.659.55 1.17.524zm-6.715-2.836c2.742 0 4.965-2.216 4.965-4.948s-2.223-4.947-4.965-4.947-4.965 2.215-4.965 4.947 2.22 4.948 4.965 4.948zm-.355-1.114a.718.718 0 01-.131-.002 4.2 4.2 0 01-2.143-1.13 4.178 4.178 0 01-1.135-2.137c-.065-.354.128-.676.487-.742.355-.065.678.13.744.484.096.582.357 1.068.781 1.49.421.388.94.677 1.492.776a.64.64 0 01-.095 1.261z"/></svg><svg viewBox="1512 401 18 18" id="search-2" xmlns="http://www.w3.org/2000/svg"><path d="M1529.249 418.92a.592.592 0 01-.419-.174l-5.299-5.298a6.496 6.496 0 01-4.178 1.513 6.538 6.538 0 01-6.531-6.53 6.54 6.54 0 016.531-6.532 6.539 6.539 0 016.531 6.532 6.5 6.5 0 01-1.513 4.177l5.298 5.299a.592.592 0 01-.42 1.013zm-9.896-15.833a5.35 5.35 0 00-5.343 5.344 5.35 5.35 0 005.343 5.344 5.351 5.351 0 005.345-5.344 5.35 5.35 0 00-5.345-5.344z"/></svg><svg viewBox="1190 920 44 40" id="sound" xmlns="http://www.w3.org/2000/svg"><path d="M1202.821 959.439a2.125 2.125 0 01-1.987-1.428l-4.839-13.722a3.34 3.34 0 01-1.918-2.664h-1.362c-1.489 0-2.701-1.246-2.701-2.776v-6.094c0-1.529 1.212-2.775 2.701-2.775h1.362c.19-1.658 1.565-2.949 3.23-2.949 0 0 6.627-.029 6.684-.033 7.333-.559 14.299-2.706 20.701-6.383a2.07 2.07 0 012.127.019 2.18 2.18 0 011.051 1.887v7.127c2.964.394 5.261 3.002 5.261 6.152 0 3.151-2.297 5.758-5.261 6.153v7.127c0 .785-.393 1.49-1.051 1.886-.337.203-.71.305-1.082.305-.358 0-.716-.094-1.045-.283-5.961-3.424-12.408-5.521-19.186-6.244l4.158 11.785a2.217 2.217 0 01-.253 1.984 2.1 2.1 0 01-1.731.926h-4.859zm0-2.141h4.859c.008 0 .014.002.023-.011.01-.013.007-.021.004-.03l-4.478-12.685h-4.918l4.482 12.709c.004.01.015.017.028.017zm22.91-8.17c.009.002.02.001.033-.007.022-.014.022-.026.022-.041v-26.559c0-.015 0-.028-.022-.041-.026-.016-.043-.005-.057.002-6.402 3.678-13.343 5.884-20.646 6.57v13.498c7.302.685 14.243 2.891 20.646 6.569.007.003.015.008.024.009zm-22.754-6.695v-13.262h-5.67c-.646 0-1.172.54-1.172 1.204v10.855c0 .489.287.91.695 1.098.151.066.194.077.403.101.025.002 5.744.004 5.744.004zm24.893-2.646c1.81-.373 3.179-2.018 3.179-3.987 0-1.968-1.369-3.613-3.179-3.986v7.973zm-35.155-.303h1.338v-7.363h-1.338a.627.627 0 00-.617.634v6.094c0 .35.277.635.617.635z"/></svg><svg viewBox="0 0 12 13" id="user" xmlns="http://www.w3.org/2000/svg"><path d="M7.285 7.719h-2.57c-2.606 0-4.715 2-4.715 4.468 0 .45.383.813.855.813h10.29c.472 0 .855-.363.855-.813C12 9.72 9.89 7.72 7.285 7.72zM1.312 11.78c.211-1.601 1.657-2.844 3.403-2.844h2.57c1.746 0 3.192 1.243 3.402 2.844zM6 6.5c1.895 0 3.43-1.457 3.43-3.25S7.895 0 6 0C4.105 0 2.57 1.457 2.57 3.25 2.57 5.047 4.105 6.5 6 6.5zm0-5.281c1.18 0 2.145.91 2.145 2.031S7.18 5.281 6 5.281c-1.18 0-2.145-.91-2.145-2.031S4.82 1.219 6 1.219zm0 0"/></svg><svg viewBox="741 2884 14 14" id="user-2" xmlns="http://www.w3.org/2000/svg"><path d="M741.549 2897.166a.42.42 0 01-.428-.412c0-2.977 2.067-5.497 4.893-6.307-1.012-.621-1.684-1.709-1.684-2.947 0-1.928 1.63-3.498 3.635-3.498s3.637 1.57 3.637 3.498c0 1.237-.672 2.326-1.684 2.947 2.825.811 4.891 3.33 4.891 6.307a.42.42 0 01-.428.412h-12.832zm.444-.822h11.947c-.22-2.984-2.817-5.348-5.975-5.348-3.158 0-5.752 2.364-5.972 5.348zm5.972-6.17c1.533 0 2.781-1.2 2.781-2.674s-1.248-2.674-2.781-2.674c-1.533 0-2.779 1.2-2.779 2.674s1.246 2.674 2.779 2.674z"/></svg></svg>